<?xml version="1.0" encoding="UTF-8"?>
<!DOCTYPE svg PUBLIC "-//W3C//DTD SVG 1.0//EN" "http://www.w3.org/TR/2001/REC-SVG-20010904/DTD/svg10.dtd">
<!-- Creator: CorelDRAW X7 -->
<?xml-stylesheet href="values-8.css" type="text/css"?>
<svg xmlns="http://www.w3.org/2000/svg" xml:space="preserve" width="21.1319cm" height="21.1769cm" version="1.0" style="shape-rendering:geometricPrecision; text-rendering:geometricPrecision; image-rendering:optimizeQuality; fill-rule:evenodd; clip-rule:evenodd"
viewBox="0 0 631 632"
 xmlns:xlink="http://www.w3.org/1999/xlink">
 <g id="Layer_x0020_1">
  <metadata id="CorelCorpID_0Corel-Layer"/>
  <g id="_2704656241920">
   <circle class="fil0" cx="557" cy="558" r="74"/>
   <path class="fil1" d="M557 484c41,0 74,33 74,74 0,41 -33,74 -74,74 -41,0 -75,-33 -75,-74 0,-41 34,-74 75,-74zm16 53l-27 25 12 0 -15 24 30 -31 -12 0 12 -18zm-8 -27c0,2 -1,3 -2,4 23,3 41,22 41,46 0,26 -21,46 -46,46 -21,0 -39,-14 -45,-33l-13 0 15 -26 16 26 -10 0c5,15 20,26 37,26 22,0 39,-18 39,-39 0,-22 -18,-39 -40,-39 -14,0 -27,9 -34,21l-8 0c6,-14 19,-25 35,-27 -1,-2 -2,-3 -2,-5 0,-4 4,-7 9,-7 4,0 8,3 8,7z"/>
  </g>
  <g id="_2704656244128">
   <circle class="fil0" cx="557" cy="76" r="74"/>
   <path class="fil2" d="M557 1c-41,0 -75,34 -75,75 0,41 34,74 75,74 41,0 74,-33 74,-74 0,-41 -33,-75 -74,-75zm42 114l0 -86 -15 0 0 23 -38 0 0 23 -28 0 0 40 -9 0 0 7 95 0 0 -7 -5 0zm-66 -23l-11 0 0 -10 11 0 0 10zm14 0l-10 0 0 -10 10 0 0 10zm15 0l-10 0 0 -10 10 0 0 10zm16 0l-10 0 0 -10 10 0 0 10zm15 0l-11 0 0 -10 11 0 0 10zm-60 19l-11 0 0 -10 11 0 0 10zm14 0l-10 0 0 -10 10 0 0 10zm15 0l-10 0 0 -10 10 0 0 10zm16 0l-10 0 0 -10 10 0 0 10zm15 0l-11 0 0 -10 11 0 0 10zm-31 -37l-10 0 0 -10 10 0 0 10zm16 0l-10 0 0 -10 10 0 0 10zm15 0l-11 0 0 -10 11 0 0 10z"/>
  </g>
  <g id="_2704656243776">
   <circle class="fil3" cx="318" cy="314" r="131"/>
   <path class="fil4" d="M450 314c0,-73 -59,-131 -132,-131 -72,0 -131,58 -131,131 0,14 2,28 6,40 26,-37 73,-61 125,-61 53,0 99,24 125,61 4,-12 7,-26 7,-40z"/>
   <path class="fil5" d="M413 405c-18,-51 -67,-87 -124,-87 -37,0 -71,15 -95,40 2,5 4,10 7,15 21,-24 53,-40 88,-40 38,0 72,19 93,47 -19,-17 -44,-27 -71,-27 -38,0 -71,20 -90,50 24,26 59,42 97,42 31,0 60,-10 82,-28 5,-4 9,-7 13,-12z"/>
  </g>
  <g id="_2704656246176">
   <circle class="fil0" cx="74" cy="558" r="74"/>
   <path class="fil1" d="M74 484c41,0 75,33 75,74 0,41 -34,74 -75,74 -41,0 -74,-33 -74,-74 0,-41 33,-74 74,-74zm-11 89l0 6 -2 0 2 -6zm-19 6l0 0 -3 0 6 -20 4 0 -7 20zm7 0l0 0 6 -20 -3 0 -7 20 4 0zm10 -20l0 0 -7 20 4 0 5 -16 0 -4 -2 0zm-27 10l0 0 0 -10 3 0 -3 10zm7 -10l0 0 -7 20 0 0 3 0 7 -20 -3 0zm-10 -6l0 0 -3 0 0 3 0 26 0 3 3 0 35 0 3 0 0 -3 0 -26 0 -3 -3 0 -35 0zm57 -17l0 0 0 7 -2 0 2 -7zm-18 7l0 0 -4 0 7 -20 3 0 -6 20zm6 0l0 0 7 -20 -4 0 -6 20 3 0zm10 -20l0 0 -7 20 4 0 5 -16 0 -4 -2 0zm-27 10l0 0 0 -10 4 0 -4 10zm7 -10l0 0 -7 19 0 1 4 0 6 -20 -3 0zm-13 -6l0 0 0 3 0 26 0 3 3 0 35 0 3 0 0 -3 0 -26 0 -3 -3 0 -35 0 -3 0zm59 56l0 0 0 6 -2 0 2 -6zm-19 6l0 0 -3 0 7 -20 3 0 -7 20zm7 0l0 0 7 -20 -4 0 -6 20 3 0zm10 -20l0 0 -7 20 4 0 5 -16 0 -4 -2 0zm-27 10l0 0 0 -10 4 0 -4 10zm7 -10l0 0 -7 20 0 0 4 0 6 -20 -3 0zm-13 -6l0 0 0 3 0 26 0 3 3 0 35 0 3 0 0 -3 0 -26 0 -3 -3 0 -35 0 -3 0zm46 41c0,3 -3,5 -7,5l-84 0c-4,0 -7,-2 -7,-5 0,-3 3,-5 7,-5l84 0c4,0 7,2 7,5z"/>
  </g>
  <g id="_2704656246784">
   <circle class="fil0" cx="76" cy="74" r="74"/>
   <path class="fil2" d="M79 81l37 0 0 3 0 3 0 7 -5 0 0 -7 -32 0 0 7 -5 0 0 -7 -34 0 0 7 -5 0 0 -7 0 -3 0 -3 39 0 0 -6 5 0 0 6zm23 18l23 0 0 23 -23 0 0 -23zm-5 -73l0 42 -41 0 0 -42 41 0zm-9 73l0 23 -23 0 0 -23 23 0zm-38 0l0 23 -24 0 0 -23 24 0zm26 49c41,0 74,-33 74,-74 0,-41 -33,-74 -74,-74 -41,0 -75,33 -75,74 0,41 34,74 75,74z"/>
  </g>
  <g id="_2704656247744">
   <path class="fil1" d="M133 491c2,-3 5,-3 8,-2l62 -62c-1,-3 0,-6 2,-9 3,-3 8,-3 11,0 3,3 3,8 0,11 -2,2 -6,3 -9,2l-62 62c1,3 1,6 -1,9 -3,3 -8,3 -11,0 -3,-3 -3,-8 0,-11z"/>
   <path class="fil2" d="M419 204c3,-2 6,-3 9,-2l62 -62c-1,-3 -1,-6 2,-8 3,-3 7,-3 10,0 3,3 3,8 0,11 -2,2 -5,2 -8,1l-62 62c1,3 0,7 -2,9 -3,3 -8,3 -11,0 -3,-3 -3,-8 0,-11z"/>
   <path class="fil2" d="M142 133c3,2 3,6 2,9l62 62c3,-1 6,-1 9,2 3,3 3,7 0,10 -3,3 -8,3 -11,0 -2,-2 -3,-5 -2,-8l-62 -62c-3,1 -6,0 -8,-2 -3,-3 -3,-8 0,-11 3,-3 7,-3 10,0z"/>
   <path class="fil1" d="M428 419c2,2 3,5 2,8l62 63c3,-2 6,-1 8,1 3,3 3,8 0,11 -3,3 -8,3 -11,0 -2,-2 -2,-6 -1,-8l-62 -63c-3,2 -7,1 -9,-1 -3,-3 -3,-8 0,-11 3,-3 8,-3 11,0z"/>
  </g>
 </g>
</svg>
