<?xml version="1.0" encoding="UTF-8"?>
<!DOCTYPE svg PUBLIC "-//W3C//DTD SVG 1.1//EN" "http://www.w3.org/Graphics/SVG/1.1/DTD/svg11.dtd">
<!-- Creator: CorelDRAW -->
<svg xmlns="http://www.w3.org/2000/svg" xml:space="preserve" width="237.881mm" height="237.88mm" style="shape-rendering:geometricPrecision; text-rendering:geometricPrecision; image-rendering:optimizeQuality; fill-rule:evenodd; clip-rule:evenodd"
viewBox="0 0 11.525 11.5249"
 xmlns:xlink="http://www.w3.org/1999/xlink">
 <defs>
  <style type="text/css">
   <![CDATA[
    .fil0 {fill:#089FB0}
    .fil1 {fill:white}
   ]]>
  </style>
 </defs>
 <g id="Layer_x0020_1">
  <metadata id="CorelCorpID_0Corel-Layer"/>
  <g id="_220834408">
   <polygon id="_41920544" class="fil0" points="-0,5.74888 0.0271651,5.15232 0.108525,4.58286 0.244083,4.0405 0.433905,3.49813 0.677983,3.01003 0.976266,2.52193 1.30164,2.08803 1.68128,1.68129 2.08809,1.30165 2.52192,0.976203 3.01009,0.67792 3.49819,0.433842 4.04055,0.24402 4.58284,0.108462 5.15237,0.0270972 5.74893,0 6.34549,0.0270972 6.91495,0.108462 7.45731,0.24402 7.99967,0.433842 8.48777,0.67792 8.97593,0.976203 9.40977,1.30165 9.81657,1.68129 10.1962,2.08803 10.5216,2.52193 10.8199,3.01003 11.0639,3.49813 11.2538,4.0405 11.3893,4.58286 11.4707,5.15232 11.525,5.74888 11.4707,6.34551 11.3893,6.91497 11.2538,7.45727 11.0639,7.99963 10.8199,8.4878 10.5216,8.9759 10.1962,9.40973 9.81657,9.81654 9.40977,10.1962 8.97593,10.5216 8.48777,10.8199 7.99967,11.0639 7.45731,11.2537 6.91495,11.3894 6.34549,11.4707 5.74893,11.5249 5.15237,11.4707 4.58284,11.3894 4.04055,11.2537 3.49819,11.0639 3.01009,10.8199 2.52192,10.5216 2.08809,10.1962 1.68128,9.81654 1.30164,9.40973 0.976266,8.9759 0.677983,8.4878 0.433905,7.99963 0.244083,7.45727 0.108525,6.91497 0.0271651,6.34551 "/>
   <g>
    <path id="_41920880" class="fil1" d="M3.78295 3.53888l0.162719 0.0270972 0.135559 0.0542623 0.135622 0.0812965 0.108462 0.108525 0.162656 0.271181 0.0542623 0.162656 0 0.162724 0 0.244083 0 0 -0.0813595 -0.0271651 -0.0813595 -0.0541993 -0.0813644 -0.162719 -0.0541945 -0.108462 -0.0271021 -0.0542623 0 0 -0.0271602 -0.0813595 -0.0541993 -0.0270972 -0.0271602 0 -0.0541993 0 -0.0270972 0.0542623 -0.162724 0.135559 -0.162719 0.135622 -0.162724 0.0812965 -0.162656 0.0542623 -0.162719 0.0270972 -0.108462 0.0271651 -0.0813595 0 -0.0271651 0 -0.0541945 0 0 -0.244083 0.0270972 -0.162724 0.0542623 -0.162656 0.162719 -0.271181 0.108462 -0.108525 0.135559 -0.0812965 0.135622 -0.0542623 0.162656 -0.0270972 0.0542623 0zm-0.894901 1.4643l0 0.271181 -0.0541993 -0.0541993 0 -0.0813595 0 -0.0813595 0.0541993 -0.0542623 0 0zm1.65418 0.0271651l0.0542623 0.0270972 0 0.0813595 0 0.108462 -0.0542623 0.0270972 0 -0.244016 0 0zm-0.542361 -0.515269l0.135622 0.189821 0.189821 0.189821 0 0.515264 -0.0542623 0.24402 -0.108462 0.189821 -0.162719 0.135622 -0.216918 0.0270972 -0.135622 0 -0.216918 -0.0270972 -0.162724 -0.135622 -0.108457 -0.189821 -0.0541993 -0.24402 0 -0.515264 0.189821 -0.0270972 0.216918 -0.0542623 0.244083 -0.108462 0.244016 -0.189821 0 0zm-0.0813595 1.76265l0 0.162719 -0.189821 0.24402 -0.216918 -0.216918 0 -0.135559 0 -0.0542623 0.135559 0 0.135622 0 0.135559 0 0 0zm0.216981 0.271181l0.0813595 0.0813595 -0.162719 0.379642 -0.0270972 -0.0542623 -0.135622 -0.108462 0.216918 -0.271181 0.0271602 -0.0270972 0 0zm-0.840639 0l0.0270972 0.0813595 0.216918 0.24402 -0.162656 0.135622 -0.162719 -0.379642 0.0813595 -0.0813595 0 0zm0.406739 0.488099l0.108457 0.0813644 -0.0541945 0.0813595 -0.108525 0 -0.0270972 -0.0813595 0.0813595 -0.0813644 0 0zm-0.271181 0.244083l0.0270972 0.0813595 -0.0270972 0.216923 -0.0813595 -0.271185 0.0542574 0 0.0271021 -0.0270972 0 0zm0.569458 0l0.0271651 0.0270972 0.0541945 0.0271021 -0.0813595 0.244083 -0.0270972 -0.216923 0.0270972 -0.0813595 0 0zm-0.244016 0.216918l0.108457 0.569463 -0.271181 0 0.0813595 -0.569463 0.0813644 0zm0.705017 -0.732182l0.244079 0.108462 0 0 0.0271021 0.0271602 0.0542623 0.0271021 0.135559 0.108457 0.0542574 0.0813644 0.0541993 0.108457 0.0542623 0.162724 0 0.162719 0 0.515201 -0.298278 0 0 -0.542361 -0.0271651 -0.0812965 -0.0813595 -0.0542623 -0.0812965 0.0542623 -0.0542623 0.0812965 0 0.542361 -0.4339 0 0.35254 -1.30165 0 0zm-0.786382 -3.44394l-0.216981 0.0271651 -0.162656 0.0541945 -0.189821 0.108462 -0.135622 0.135622 -0.135559 0.162724 -0.0813595 0.189821 -0.0542623 0.216918 -0.0270972 0.244083 0 0.406739 -0.0542623 0.135559 -0.0271021 0.135622 0.0271021 0.162724 0.0542623 0.135559 0.0813595 0.0813595 0.135559 0.0541993 0.0542623 0.189884 0.0813595 0.162656 0.108457 0.135622 0.135559 0.108462 0 0.0541993 -0.244016 0.216981 -0.0271651 0 -0.379637 0.189821 -0.162656 0.0813595 -0.162724 0.189821 -0.135622 0.271181 -0.0541993 0.162661 0 0.216981 0 0.623663 0.0271021 0.0813595 0.0813595 0.0542623 0.75928 0 0.0813595 -0.0542623 0.0271021 -0.0813595 -0.0271021 -0.108462 -0.0813595 -0.0270972 -0.108462 0 0 -0.542366 -0.0542574 -0.0813595 -0.0812965 -0.0541993 -0.0813644 0.0541993 -0.0271602 0.0813595 0 0.542366 -0.298283 0 0 -0.515264 0.0271021 -0.162661 0.0271602 -0.162719 0.0541993 -0.108462 0.0813595 -0.0813595 0.108462 -0.108462 0.0542623 -0.0271602 0.0270972 -0.0271021 0 0 0.271181 -0.135559 0.325443 1.32875 -0.0542623 0.0542623 -0.0270972 0.0541945 0.0270972 0.108462 0.108462 0.0271651 0.108457 0.0541945 1.73555 0 0.0813595 -0.0541945 0.0541945 -0.0813644 0 -0.650823 -0.0270972 -0.189821 -0.0270972 -0.189821 -0.162724 -0.271181 -0.162719 -0.162719 -0.162656 -0.108462 -0.379642 -0.189821 -0.271181 -0.189821 0 -0.0813595 0.135559 -0.108462 0.108462 -0.135622 0.108457 -0.162656 0.0271651 -0.189884 0.135559 -0.0541993 0.0813595 -0.0813595 0.0813595 -0.135559 0.0270972 -0.162724 -0.0270972 -0.135622 -0.0813595 -0.135559 0 -0.406739 -0.0271021 -0.244083 -0.0542574 -0.216918 -0.0813644 -0.189821 -0.135559 -0.162724 -0.135622 -0.135622 -0.162656 -0.108462 -0.189821 -0.0541945 -0.189816 -0.0271651 -0.0813644 0z"/>
    <polygon id="_41920328" class="fil1" points="5.76251,1.58641 5.43713,1.58641 5.08459,1.64061 4.75915,1.74913 4.43377,1.85759 4.10833,2.02025 3.83715,2.21007 3.53887,2.45415 3.29485,2.69824 3.24059,2.80669 3.29485,2.88806 3.32195,2.94225 3.34905,2.94225 3.43041,2.91515 3.67449,2.67107 3.91851,2.45415 4.21685,2.26433 4.48797,2.12877 4.81341,1.99315 5.11169,1.91179 5.43713,1.85759 5.76251,1.85759 6.06079,1.85759 6.33197,1.91179 6.63025,1.96605 6.90143,2.07451 7.41669,2.34569 7.90479,2.72533 7.71497,2.72533 7.63361,2.75243 7.60651,2.86089 7.63361,2.94225 7.71497,2.99651 8.17597,2.99651 8.25733,2.94225 8.31153,2.86089 8.31153,2.37279 8.25733,2.26433 8.17597,2.23723 8.09461,2.26433 8.06751,2.37279 8.06751,2.50841 7.55225,2.12877 7.28107,1.96605 6.98279,1.83043 6.68451,1.72197 6.38623,1.64061 6.08795,1.58641 5.76251,1.58641 "/>
    <polygon id="_41920112" class="fil1" points="3.43041,8.63694 3.34905,8.6641 3.32195,8.77256 3.32195,9.23356 3.34905,9.34202 3.43041,9.36912 3.51177,9.34202 3.56603,9.23356 3.56603,9.09794 4.05413,9.45048 4.59649,9.72167 5.16595,9.88438 5.46423,9.91148 5.76251,9.93858 6.08795,9.91148 6.41333,9.85722 6.73877,9.77592 7.03705,9.6674 7.33533,9.53184 7.63361,9.34202 7.90479,9.1522 8.14887,8.90812 8.20307,8.82676 8.17597,8.74539 8.06751,8.6912 8.01325,8.7183 7.49805,9.1251 7.22687,9.28776 6.95569,9.42338 6.65741,9.53184 6.35907,9.6132 6.06079,9.6403 5.76251,9.6674 5.19305,9.6132 4.67779,9.47758 4.16259,9.23356 3.70159,8.88102 3.89141,8.88102 3.97277,8.85392 3.99987,8.77256 3.97277,8.6641 3.89141,8.63694 "/>
    <path id="_41919848" class="fil1" d="M7.87769 3.53888l0.162719 0.0270972 0.135559 0.0542623 0.135559 0.0812965 0.108525 0.108525 0.162656 0.271181 0.0542623 0.162656 0 0.162724 0 0.244083 -0.0270972 0 -0.0813644 -0.0542623 -0.0542574 -0.0542623 -0.108462 -0.135559 -0.0542623 -0.108462 0 -0.0542623 0 -0.0270972 -0.0270972 -0.0542623 -0.0541993 -0.0270972 -0.0271602 0 -0.0541993 0 -0.0542623 0.0542623 -0.135559 0.135559 -0.162719 0.135622 -0.189821 0.0812965 -0.162724 0.0542623 -0.135554 0.0270972 -0.108462 0 -0.108525 0.0271651 -0.0270972 0 -0.0270972 0 0 -0.244083 0 -0.162724 0.0541945 -0.162656 0.162724 -0.271181 0.108457 -0.108525 0.135622 -0.0812965 0.135559 -0.0542623 0.162724 -0.0270972 0.0813595 0zm-0.922003 1.4643l0 0.271181 -0.0270972 -0.0541993 -0.0271651 -0.0813595 0 -0.0813595 0.0542623 -0.0542623 0 0zm1.68128 0.0271651l0.0270972 0.0270972 0.0271021 0.0813595 0 0.108462 -0.0541993 0.0270972 0 -0.244016 0 0zm-0.569458 -0.515269l0.135559 0.189821 0.189816 0.162724 0 0.542361 -0.0270972 0.24402 -0.108462 0.189821 -0.189816 0.135622 -0.189821 0.0270972 -0.135622 0 -0.216918 -0.0270972 -0.189821 -0.135622 -0.108462 -0.189821 -0.0270972 -0.24402 0 -0.515264 0.162656 -0.0270972 0.244083 -0.0542623 0.244016 -0.135559 0.216986 -0.162724 0 0zm-0.0542623 1.76265l0 0.162719 -0.216918 0.24402 -0.216918 -0.216918 0 -0.135559 0 -0.0542623 0.135554 0 0.162724 0 0.135559 0 0 0zm-0.650823 0.271181l0.0271651 0.0270972 0.0270972 0.0271651 0.216918 0.271118 -0.189821 0.135622 -0.162719 -0.406739 0.0813595 -0.0542623 0 0zm0.867804 0l0.0541993 0.0542623 -0.162724 0.406739 -0.0270972 -0.0542623 -0.135559 -0.108462 0.24402 -0.271181 0.0271602 -0.0270972 0 0zm-0.4339 0.488099l0.0813595 0.0813644 -0.0271651 0.0813595 -0.108457 0 -0.0541993 -0.0813595 0.108462 -0.0813644 0 0zm-0.298283 0.244083l0.0271021 0.0813595 -0.0271021 0.216923 -0.0542623 -0.271185 0.0271021 0 0.0271602 -0.0270972 0 0zm0.569463 0l0.0270972 0.0270972 0.0542623 0.0271021 -0.0542623 0.244083 -0.0270972 -0.216923 0 -0.0813595 0 0zm-0.216986 0.189821l0.0813644 0.596561 -0.271181 0 0.10852 -0.596561 0.0812965 0zm0.677983 -0.705085l0.271181 0.108462 0 0 0.0271021 0 0.0270972 0.0271602 0.135622 0.135559 0.0813595 0.0813644 0.0541993 0.108457 0.0270972 0.162724 0.0271651 0.162719 0 0.515201 -0.298278 0 0 -0.542361 -0.0271651 -0.0812965 -0.108457 -0.0542623 -0.0813644 0.0542623 -0.0270972 0.0812965 0 0.542361 -0.4339 0 0.325438 -1.30165 0 0zm-0.78644 -3.44394l-0.189821 0.0271651 -0.189821 0.0541945 -0.162656 0.108462 -0.162719 0.135622 -0.108462 0.162724 -0.0813595 0.189821 -0.0813595 0.216918 0 0.216918 0 0.433905 -0.0813644 0.135559 -0.0270972 0.135622 0.0270972 0.162724 0.0542623 0.108457 0.108462 0.108462 0.108457 0.0541993 0.0541993 0.189884 0.0813595 0.162656 0.108525 0.135622 0.162656 0.108462 0 0.0541993 -0.271181 0.216981 -0.0270972 0 -0.379642 0.162724 -0.162719 0.108457 -0.162719 0.189821 -0.135559 0.271181 -0.0542623 0.162661 0 0.216981 0 0.623663 0.0271602 0.0813595 0.0813644 0.0542623 0.75928 0 0.0813595 -0.0542623 0.0270972 -0.0813595 -0.0270972 -0.108462 -0.0813595 -0.0270972 -0.108462 0 0 -0.542366 -0.0271651 -0.0813595 -0.0813595 -0.0541993 -0.0812965 0.0541993 -0.0542623 0.0813595 0 0.542366 -0.298278 0 0 -0.515264 0.0270972 -0.189821 0.0271021 -0.135559 0.0542623 -0.108462 0.0813595 -0.108457 0.135559 -0.108525 0.0271602 -0.0271021 0.0271021 0 0 0 0.298278 -0.135559 0.325443 1.32875 -0.0813595 0.0270972 -0.0271651 0.0813595 0.0542623 0.108462 0.0813595 0.0271651 1.8711 0 0.0813644 -0.0271651 0.0541945 -0.108462 0 -0.623721 -0.0270972 -0.189821 -0.0542623 -0.162661 -0.135559 -0.271181 -0.162719 -0.189821 -0.162656 -0.0813595 -0.406802 -0.189821 -0.24402 -0.189821 0 -0.0813595 0.135559 -0.108462 0.108462 -0.135622 0.0813595 -0.162656 0.0542623 -0.189884 0.135559 -0.0541993 0.0813595 -0.108462 0.0813595 -0.108457 0 -0.162724 0 -0.135622 -0.0813595 -0.135559 0 -0.433905 -0.0271021 -0.216918 -0.0542574 -0.216918 -0.0813644 -0.189821 -0.135559 -0.162724 -0.135622 -0.135622 -0.189816 -0.108462 -0.162661 -0.0541945 -0.216981 -0.0271651 -0.0813595 0z"/>
   </g>
  </g>
 </g>
</svg>
