<?xml version="1.0" encoding="UTF-8"?>
<!DOCTYPE svg PUBLIC "-//W3C//DTD SVG 1.1//EN" "http://www.w3.org/Graphics/SVG/1.1/DTD/svg11.dtd">
<!-- Creator: CorelDRAW -->
<svg xmlns="http://www.w3.org/2000/svg" xml:space="preserve" width="237.88mm" height="237.88mm" style="shape-rendering:geometricPrecision; text-rendering:geometricPrecision; image-rendering:optimizeQuality; fill-rule:evenodd; clip-rule:evenodd"
viewBox="0 0 14.7022 14.7022"
 xmlns:xlink="http://www.w3.org/1999/xlink">
 <defs>
  <style type="text/css">
   <![CDATA[
    .fil0 {fill:#93C245}
    .fil1 {fill:white}
   ]]>
  </style>
 </defs>
 <g id="Layer_x0020_1">
  <metadata id="CorelCorpID_0Corel-Layer"/>
  <g id="_220835440">
   <polygon id="_41920496" class="fil0" points="-0,7.33377 0.0345737,6.57274 0.138363,5.84629 0.311293,5.1544 0.553446,4.46252 0.864813,3.83986 1.24533,3.21719 1.66049,2.66367 2.1448,2.1448 2.66367,1.66049 3.21719,1.24533 3.83985,0.864819 4.46252,0.553446 5.1544,0.311293 5.84629,0.138363 6.57274,0.0345737 7.33376,0 8.09487,0.0345737 8.82132,0.138363 9.51321,0.311293 10.205,0.553446 10.8278,0.864819 11.4504,1.24533 12.0039,1.66049 12.5228,2.1448 13.0071,2.66367 13.4223,3.21719 13.8028,3.83986 14.1141,4.46252 14.3562,5.1544 14.5292,5.84629 14.633,6.57274 14.7022,7.33377 14.633,8.09488 14.5292,8.82134 14.3562,9.51322 14.1141,10.205 13.8028,10.8278 13.4223,11.4504 13.0071,12.004 12.5228,12.5228 12.0039,13.0071 11.4504,13.4222 10.8278,13.8028 10.205,14.1141 9.51321,14.3562 8.82132,14.5293 8.09487,14.6331 7.33376,14.7022 6.57274,14.6331 5.84629,14.5293 5.1544,14.3562 4.46252,14.1141 3.83985,13.8028 3.21719,13.4222 2.66367,13.0071 2.1448,12.5228 1.66049,12.004 1.24533,11.4504 0.864813,10.8278 0.553446,10.205 0.311293,9.51322 0.138363,8.82134 0.0345737,8.09488 "/>
   <g>
    <polygon id="_41920712" class="fil1" points="7.33385,6.15767 7.02247,6.19223 6.78032,6.29602 6.57274,6.50361 6.43438,6.74576 6.36524,7.02248 6.39981,7.33385 6.74575,7.43764 7.0917,7.50678 7.0917,7.99109 4.98147,7.99109 4.70475,8.02574 4.49717,8.19867 4.35881,8.40625 4.28959,8.68297 4.28959,8.95969 4.11665,8.99435 3.90908,9.09814 3.63236,9.34029 3.42477,9.68623 3.35555,9.89373 3.35555,10.1013 3.35555,10.3435 3.42477,10.551 3.52856,10.7586 3.70149,10.9316 3.8745,11.0699 4.08201,11.2083 4.28959,11.2775 4.53174,11.3121 4.77389,11.2775 4.98147,11.2083 5.18905,11.1045 5.36198,10.9661 5.50035,10.7586 5.60414,10.5856 5.67336,10.3435 5.67336,10.1013 5.67336,9.89373 5.63878,9.68623 5.4312,9.34029 5.1544,9.09814 4.98147,8.99435 4.77389,8.95969 4.77389,8.68297 4.80854,8.57918 4.84311,8.51004 4.91225,8.47539 5.01604,8.44082 7.0917,8.44082 7.0917,8.92512 6.91869,8.95969 6.74575,9.06349 6.43438,9.30563 6.26145,9.65158 6.19223,9.85916 6.19223,10.0667 6.19223,10.3089 6.26145,10.5165 6.36524,10.724 6.53817,10.9316 6.67653,11.0699 6.88411,11.1737 7.0917,11.2429 7.33385,11.2775 7.57599,11.2429 7.78358,11.1737 7.99108,11.0699 8.16409,10.9316 8.30245,10.7586 8.40624,10.551 8.47538,10.3089 8.51004,10.0667 8.47538,9.85916 8.44081,9.68623 8.23323,9.34029 7.92194,9.06349 7.74892,8.95969 7.57599,8.92512 7.57599,8.44082 9.68614,8.44082 9.78993,8.47539 9.85915,8.51004 9.89372,8.57918 9.92837,8.68297 9.92837,8.95969 9.72079,8.99435 9.54778,9.09814 9.27106,9.34029 9.06347,9.68623 9.02891,9.89373 8.99433,10.1013 9.02891,10.3435 9.09813,10.551 9.20184,10.7586 9.34027,10.9316 9.51321,11.0699 9.72079,11.2083 9.92837,11.2775 10.1705,11.3121 10.4127,11.2775 10.6202,11.2083 10.8278,11.1045 11.0008,10.9661 11.1391,10.7586 11.2429,10.5856 11.3121,10.3435 11.3466,10.1013 11.2083,9.7208 11.0008,9.37485 10.6894,9.1327 10.5164,9.02891 10.3089,8.95969 10.3089,8.71754 10.2742,8.44082 10.1013,8.23324 9.89372,8.06031 9.65157,8.02574 7.54135,8.02574 7.54135,7.54143 7.85272,7.47221 8.19866,7.36842 8.23323,7.16084 8.19866,6.95334 8.16409,6.74576 8.0603,6.57274 7.92194,6.39982 7.74892,6.26146 7.54135,6.15767 7.33385,6.15767 "/>
    <polygon id="_41921000" class="fil1" points="7.33385,4.7739 7.12626,4.80854 6.9879,4.91225 6.88411,5.0507 6.84954,5.2582 6.88411,5.43121 6.9879,5.60414 7.12626,5.70793 7.33385,5.7425 7.50678,5.70793 7.67979,5.60414 7.78358,5.43121 7.81815,5.2582 7.78358,5.0507 7.67979,4.91225 7.50678,4.80854 "/>
    <polygon id="_41920976" class="fil1" points="7.33385,3.3902 6.91869,3.42478 6.5036,3.52857 6.15766,3.73615 5.84629,3.9783 5.60414,4.28959 5.39655,4.63553 5.29284,5.0507 5.25819,5.46578 5.29284,5.91552 5.4312,6.3306 5.67336,6.67654 5.95008,7.02248 5.98464,6.8149 6.05387,6.64197 6.12309,6.39982 6.29602,6.19223 6.46895,6.0193 6.64196,5.88094 6.46895,5.60414 6.43438,5.43121 6.39981,5.2582 6.43438,5.08527 6.46895,4.91225 6.67653,4.60097 6.9879,4.39338 7.16083,4.35881 7.33385,4.32425 7.50678,4.35881 7.67979,4.39338 7.95651,4.60097 8.16409,4.91225 8.23323,5.08527 8.23323,5.2582 8.16409,5.60414 7.99108,5.88094 8.23323,6.05387 8.44081,6.29602 8.61374,6.64197 8.71753,7.02248 8.99433,6.71119 9.20184,6.3306 9.34027,5.91552 9.40942,5.46578 9.34027,5.0507 9.23649,4.63553 9.06347,4.28959 8.78676,3.9783 8.51004,3.73615 8.12944,3.52857 7.74892,3.42478 "/>
   </g>
  </g>
 </g>
</svg>
