<?xml version="1.0" encoding="UTF-8"?>
<!DOCTYPE svg PUBLIC "-//W3C//DTD SVG 1.1//EN" "http://www.w3.org/Graphics/SVG/1.1/DTD/svg11.dtd">
<!-- Creator: CorelDRAW -->
<svg xmlns="http://www.w3.org/2000/svg" xml:space="preserve" width="237.88mm" height="237.88mm" style="shape-rendering:geometricPrecision; text-rendering:geometricPrecision; image-rendering:optimizeQuality; fill-rule:evenodd; clip-rule:evenodd"
viewBox="0 0 14.3634 14.3634"
 xmlns:xlink="http://www.w3.org/1999/xlink">
 <defs>
  <style type="text/css">
   <![CDATA[
    .fil0 {fill:#93C245}
    .fil1 {fill:white}
   ]]>
  </style>
 </defs>
 <g id="Layer_x0020_1">
  <metadata id="CorelCorpID_0Corel-Layer"/>
  <g id="_220835176">
   <polygon id="_41920232" class="fil0" points="-0,7.18171 0.0673851,6.43643 0.168541,5.72507 0.337161,5.01364 0.573166,4.36999 0.876635,3.72634 1.24748,3.15047 1.65211,2.60846 2.12412,2.10029 2.6299,1.62605 3.16937,1.21952 3.7763,0.846915 4.38315,0.542016 5.05756,0.3049 5.73188,0.135483 6.43989,0.0338496 7.18167,0 7.92346,0.0338496 8.63155,0.135483 9.30587,0.3049 9.98018,0.542016 10.5871,0.846915 11.194,1.21952 11.7334,1.62605 12.2392,2.10029 12.7112,2.60846 13.1159,3.15047 13.4868,3.72634 13.7902,4.36999 14.0263,5.01364 14.1948,5.72507 14.296,6.43643 14.3634,7.18171 14.296,7.89315 14.1948,8.6045 14.0263,9.31593 13.7902,9.95958 13.4868,10.6032 13.1159,11.1791 12.7112,11.7211 12.2392,12.2293 11.7334,12.7035 11.194,13.1101 10.5871,13.4827 9.98018,13.7876 9.30587,14.0247 8.63155,14.1941 7.92346,14.2957 7.18167,14.3634 6.43989,14.2957 5.73188,14.1941 5.05756,14.0247 4.38315,13.7876 3.7763,13.4827 3.16937,13.1101 2.6299,12.7035 2.12412,12.2293 1.65211,11.7211 1.24748,11.1791 0.876635,10.6032 0.573166,9.95958 0.337161,9.31593 0.168541,8.6045 0.0673851,7.89315 "/>
   <g>
    <path id="_41919704" class="fil1" d="M9.9796 3.87887l0.11569 0.0338496 0.0772151 0.0677836 0.0385653 0.169332 -0.0385653 0.169417 -0.0772151 0.0677051 -0.11569 0.033928 -2.81718 0 -0.0386498 0 -0.11569 -0.033928 -0.0386559 -0.0677051 -0.0771246 -0.169417 0.0771246 -0.169332 0.0772212 -0.0677836 0.115774 -0.0338496 2.81718 0zm-5.67291 0l0.0771246 0.0338496 0.0772151 0.0677836 0.0385653 0.0676991 0.0386559 0.101633 -0.0386559 0.101633 -0.0385653 0.101633 -0.0772151 0.0677836 -0.0771246 0 -0.11578 0 -0.0772151 -0.0677836 -0.0385653 -0.101633 -0.0386498 -0.101633 0.11578 -0.169332 0.0386498 -0.0677836 0.11578 -0.0338496 0 0zm0.926141 0l0.11578 0.0338496 0.0772151 0.0677836 0.0385653 0.0676991 0.0385653 0.101633 -0.0385653 0.101633 -0.0385653 0.101633 -0.0772151 0.0677836 -0.11578 0 -0.0771246 0 -0.0772151 -0.0677836 -0.0772151 -0.101633 0 -0.101633 0 -0.101633 0.0772151 -0.0676991 0.0772151 -0.0677836 0.0771246 -0.0338496 0 0zm0.964797 0l0.11578 0.0338496 0.0772151 0.0677836 0.0385653 0.0676991 0.0385653 0.101633 -0.0385653 0.101633 -0.0385653 0.101633 -0.0772151 0.0677836 -0.11578 0 -0.115774 0 -0.0772212 -0.0677836 -0.0385593 -0.101633 0 -0.101633 0 -0.101633 0.0385593 -0.0676991 0.0772212 -0.0677836 0.115774 -0.0338496 0 0zm-2.35405 -1.05018l-0.11578 0 -0.15434 0.0338496 -0.231561 0.203266 -0.15434 0.237116 -0.0386559 0.338749 0 1.35509 8.10418 0 0 -1.35509 -0.0772212 -0.304815 -0.15434 -0.27105 -0.27012 -0.169338 -0.11578 -0.0677776 -0.15434 0 -6.63771 0z"/>
    <polygon id="_41920280" class="fil1" points="3.11034,5.53877 3.11034,10.0782 3.1489,10.4169 3.30333,10.654 3.5348,10.8573 3.68923,10.8912 3.80501,10.9251 5.07849,10.9251 4.92415,10.7218 4.88549,10.654 4.88549,10.5524 4.88549,10.4169 4.92415,10.3491 5.1557,10.0782 5.1557,9.97655 5.07849,9.80713 4.73115,9.80713 4.65393,9.80713 4.57681,9.73943 4.49959,9.67165 4.49959,9.53616 4.49959,8.45213 4.49959,8.3505 4.57681,8.28271 4.65393,8.21501 4.73115,8.18108 5.07849,8.18108 5.1557,8.07945 5.1557,7.94396 4.92415,7.67299 4.88549,7.57136 4.88549,7.46973 4.88549,7.36809 4.92415,7.30031 5.61873,6.52118 5.77317,6.45339 5.92751,6.52118 6.19763,6.79214 6.27485,6.75829 6.39062,6.72444 6.39062,6.31791 6.42919,6.18242 6.46775,6.11464 6.54497,6.04694 6.66075,6.01301 7.58689,6.01301 7.70267,6.04694 7.77988,6.11464 7.85701,6.18242 7.85701,6.31791 7.85701,6.72444 7.97279,6.75829 8.08857,6.79214 8.32012,6.52118 8.47447,6.45339 8.66747,6.52118 9.32349,7.30031 9.4007,7.36809 9.4007,7.46973 9.4007,7.57136 9.32349,7.67299 9.09193,7.94396 9.13058,8.0456 9.16914,8.18108 9.51648,8.18108 9.63226,8.21501 9.70939,8.28271 9.74804,8.3505 9.7866,8.45213 9.7866,9.53616 9.74804,9.67165 9.70939,9.73943 9.63226,9.80713 9.51648,9.80713 9.16914,9.80713 9.13058,9.94262 9.09193,10.0782 9.32349,10.3491 9.4007,10.4169 9.4007,10.5524 9.4007,10.654 9.32349,10.7218 9.16914,10.9251 10.4426,10.9251 10.5971,10.8912 10.7514,10.8573 10.983,10.654 11.1373,10.4169 11.2145,10.0782 11.2145,5.53877 "/>
    <polygon id="_41919368" class="fil1" points="7.16242,8.21501 7.00808,8.21501 6.8923,8.28271 6.66075,8.45213 6.50631,8.68925 6.46775,8.99415 6.50631,9.33289 6.66075,9.57002 6.8923,9.77328 7.00808,9.80713 7.16242,9.84106 7.31677,9.80713 7.43255,9.77328 7.6641,9.57002 7.81844,9.33289 7.89567,8.99415 7.81844,8.68925 7.6641,8.45213 7.43255,8.28271 7.31677,8.21501 "/>
    <path id="_41919296" class="fil1" d="M7.16242 7.70684l0.231561 0.0338556 0.231464 0.0677776 0.192996 0.135489 0.193002 0.169411 0.115774 0.203188 0.11569 0.203266 0.0772151 0.27105 0.0385653 0.270972 -0.0385653 0.237194 -0.0772151 0.270972 -0.11569 0.203266 -0.115774 0.203266 -0.193002 0.169332 -0.192996 0.135567 -0.231464 0.0676991 -0.231561 0.0339341 -0.231555 -0.0339341 -0.231561 -0.0676991 -0.192996 -0.135567 -0.192905 -0.135483 -0.15434 -0.203266 -0.0772151 -0.237116 -0.0772212 -0.237122 -0.0385593 -0.271044 0.0385593 -0.270972 0.0772212 -0.27105 0.0772151 -0.203266 0.15434 -0.203188 0.192905 -0.169411 0.192996 -0.135489 0.231561 -0.0677776 0.231555 -0.0338556 0 0zm-0.27012 -1.08403l0 0.338749 -0.0386498 0.169417 -0.154346 0.0676991 -0.231555 0.101633 -0.192905 0.135489 -0.11578 0 -0.11578 0 -0.0772151 -0.0677051 -0.231561 -0.237116 -0.347335 0.372599 0.231555 0.237122 0.0772212 0.169411 -0.0385653 0.169338 -0.11578 0.237116 -0.0772151 0.27105 -0.0772151 0.169417 -0.0385653 0.0338496 -0.0772151 0 -0.308685 0 0 0.542016 0.308685 0 0.0772151 0 0.0385653 0.0677051 0.0772151 0.135561 0.0772151 0.270972 0.11578 0.237116 0.0385653 0.169417 -0.0772212 0.169417 -0.231555 0.237116 0.347335 0.372605 0.231561 -0.237122 0.0772151 -0.0677776 0.0771246 0 0.154436 0 0.192905 0.135561 0.231555 0.101633 0.154346 0.101555 0.0386498 0.135561 0 0.372605 0.463025 0 0 -0.372605 0.0772212 -0.135561 0.115774 -0.101555 0.231561 -0.0677836 0.192905 -0.169411 0.11578 0 0.115774 0 0.0772212 0.0677776 0.231555 0.237122 0.308685 -0.372605 -0.231561 -0.237116 -0.0385593 -0.169417 0.0385593 -0.169417 0.11578 -0.237116 0.0772151 -0.270972 0.0771306 -0.135561 0.0772151 -0.0677051 0.0772151 0 0.308685 0 0 -0.542016 -0.308685 0 -0.0772151 -0.0338496 -0.0772151 -0.0339341 -0.0771306 -0.169332 -0.0772151 -0.2372 -0.11578 -0.237116 -0.0385593 -0.203266 0.0385593 -0.169338 0.231561 -0.237116 -0.308685 -0.372683 -0.231555 0.237122 -0.0772212 0.0677776 -0.0771246 0.0338556 -0.15443 -0.0677051 -0.192905 -0.101633 -0.231561 -0.101633 -0.115774 -0.0677836 -0.0772212 -0.169332 0 -0.3049 -0.463025 0z"/>
   </g>
  </g>
 </g>
</svg>
