<?xml version="1.0" encoding="UTF-8"?>
<!DOCTYPE svg PUBLIC "-//W3C//DTD SVG 1.1//EN" "http://www.w3.org/Graphics/SVG/1.1/DTD/svg11.dtd">
<!-- Creator: CorelDRAW -->
<svg xmlns="http://www.w3.org/2000/svg" xml:space="preserve" width="237.88mm" height="237.88mm" style="shape-rendering:geometricPrecision; text-rendering:geometricPrecision; image-rendering:optimizeQuality; fill-rule:evenodd; clip-rule:evenodd"
viewBox="0 0 14.3201 14.32"
 xmlns:xlink="http://www.w3.org/1999/xlink">
 <defs>
  <style type="text/css">
   <![CDATA[
    .fil0 {fill:#93C245}
    .fil1 {fill:white}
   ]]>
  </style>
 </defs>
 <g id="Layer_x0020_1">
  <metadata id="CorelCorpID_0Corel-Layer"/>
  <g id="_220835392">
   <polygon id="_41918960" class="fil0" points="-0,7.17686 0.0338256,6.43557 0.135152,5.72803 0.303973,5.02042 0.540379,4.38022 0.844352,3.74002 1.21591,3.16724 1.62113,2.62813 2.09402,2.12269 2.60064,1.651 3.14102,1.24665 3.71515,0.876047 4.35685,0.572778 4.99856,0.336932 5.70776,0.16843 6.41704,0.0673382 7.16007,0 7.86927,0.0673382 8.57855,0.16843 9.28775,0.336932 9.92945,0.572778 10.5712,0.876047 11.1454,1.24665 11.6857,1.651 12.1923,2.12269 12.6652,2.62813 13.0704,3.16724 13.442,3.74002 13.7459,4.38022 13.9823,5.02042 14.1512,5.72803 14.2525,6.43557 14.3201,7.17686 14.2525,7.88448 14.1512,8.59201 13.9823,9.29963 13.7459,9.93983 13.442,10.58 13.0704,11.1528 12.6652,11.6919 12.1923,12.1974 11.6857,12.669 11.1454,13.0734 10.5712,13.444 9.92945,13.7473 9.28775,13.9831 8.57855,14.1516 7.86927,14.2527 7.16007,14.32 6.41704,14.2527 5.70776,14.1516 4.99856,13.9831 4.35685,13.7473 3.71515,13.444 3.14102,13.0734 2.60064,12.669 2.09402,12.1974 1.62113,11.6919 1.21591,11.1528 0.844352,10.58 0.540379,9.93983 0.303973,9.29963 0.135152,8.59201 0.0338256,7.88448 "/>
   <g>
    <polygon id="_41919464" class="fil1" points="8.74738,4.98675 8.64605,4.98675 8.57855,5.02042 8.54472,5.08784 8.54472,5.18892 8.54472,5.25626 8.57855,5.32368 8.64605,5.35735 8.74738,5.3911 9.15268,5.3911 9.22025,5.35735 9.28775,5.32368 9.32158,5.25626 9.35533,5.18892 9.32158,5.08784 9.28775,5.02042 9.22025,4.98675 9.15268,4.98675 "/>
    <polygon id="_41918936" class="fil1" points="6.78851,3.80744 6.68718,3.80744 6.58586,3.90853 6.55211,4.00962 6.58586,4.07704 6.78851,4.44764 6.85609,4.54872 6.99116,4.58239 7.05874,4.54872 7.16007,4.44764 7.16007,4.27913 6.95742,3.90853 6.88984,3.80744 6.78851,3.80744 "/>
    <polygon id="_41919440" class="fil1" points="8.34207,3.80744 8.24083,3.80744 8.17325,3.90853 7.9706,4.27913 7.9706,4.44764 8.07192,4.54872 8.1395,4.58239 8.24083,4.54872 8.30832,4.44764 8.51098,4.07704 8.51098,3.90853 8.4434,3.80744 8.34207,3.80744 "/>
    <polygon id="_41919248" class="fil1" points="5.97798,4.98675 5.91041,4.98675 5.84283,5.02042 5.80909,5.18892 5.84283,5.32368 5.91041,5.35735 5.97798,5.3911 6.38321,5.3911 6.45078,5.35735 6.51836,5.32368 6.58586,5.18892 6.51836,5.02042 6.45078,4.98675 6.38321,4.98675 "/>
    <polygon id="_41918888" class="fil1" points="4.3906,6.97468 4.25553,7.00843 4.2217,7.14319 4.2217,10.3104 4.25553,10.4453 4.3906,10.5126 5.20113,10.5126 5.33629,10.4453 5.40378,10.3104 5.40378,7.14319 5.33629,7.00843 5.20113,6.97468 "/>
    <polygon id="_41919104" class="fil1" points="7.16007,4.98675 7.02491,5.02042 6.95742,5.15526 6.95742,5.35735 6.92359,5.55953 6.85609,6.0313 6.68718,6.46932 6.58586,6.63775 6.45078,6.77258 6.28189,6.94101 6.14681,7.0421 5.80909,7.21061 5.80909,10.1757 6.11306,10.2768 6.48454,10.3778 6.88984,10.4789 7.39647,10.5126 8.67987,10.5126 8.8487,10.4789 8.98378,10.4453 9.22025,10.2431 9.28775,10.142 9.32158,9.9735 9.32158,9.83874 9.28775,9.70398 9.49041,9.56915 9.65931,9.36705 9.72681,9.13112 9.69305,8.89528 9.82813,8.82794 9.92945,8.76052 10.0984,8.49092 10.0984,8.35617 10.0984,8.22141 10.0645,8.0529 9.96321,7.91814 10.0984,7.71597 10.0984,7.48012 10.0308,7.24428 9.89571,7.10952 9.69305,6.97468 9.49041,6.94101 7.93685,6.94101 8.00434,6.83993 8.03818,6.70517 8.10567,6.36823 8.1395,6.0313 8.1395,5.89646 8.1395,5.7617 8.1395,5.62695 8.07192,5.45844 7.90302,5.22259 7.63287,5.02042 7.32889,4.98675 "/>
   </g>
  </g>
 </g>
</svg>
