<?xml version="1.0" encoding="UTF-8"?>
<!DOCTYPE svg PUBLIC "-//W3C//DTD SVG 1.1//EN" "http://www.w3.org/Graphics/SVG/1.1/DTD/svg11.dtd">
<!-- Creator: CorelDRAW -->
<svg xmlns="http://www.w3.org/2000/svg" xml:space="preserve" width="237.88mm" height="237.88mm" style="shape-rendering:geometricPrecision; text-rendering:geometricPrecision; image-rendering:optimizeQuality; fill-rule:evenodd; clip-rule:evenodd"
viewBox="0 0 11.5702 11.5702"
 xmlns:xlink="http://www.w3.org/1999/xlink">
 <defs>
  <style type="text/css">
   <![CDATA[
    .fil0 {fill:#089FB0}
    .fil1 {fill:white}
   ]]>
  </style>
 </defs>
 <g id="Layer_x0020_1">
  <metadata id="CorelCorpID_0Corel-Layer"/>
  <g id="_220834888">
   <polygon id="_41919728" class="fil0" points="-0,5.78512 0.0272719,5.18481 0.109146,4.61176 0.245622,4.03865 0.436637,3.52021 0.682196,3.0017 0.982352,2.5378 1.30985,2.10123 1.69188,1.69187 2.10118,1.30983 2.53782,0.98241 3.00172,0.682249 3.52016,0.436632 4.03868,0.245617 4.61173,0.109204 5.18477,0.0273303 5.78516,0 6.35821,0.0273303 6.93125,0.109204 7.5043,0.245617 8.02274,0.436632 8.54126,0.682249 9.00516,0.98241 9.44173,1.30983 9.8511,1.69187 10.2331,2.10123 10.5606,2.5378 10.8608,3.0017 11.1063,3.52021 11.2974,4.03865 11.4338,4.61176 11.5157,5.18481 11.5702,5.78512 11.5157,6.35817 11.4338,6.93122 11.2974,7.50426 11.1063,8.02277 10.8608,8.54121 10.5606,9.00512 10.2331,9.44175 9.8511,9.85105 9.44173,10.2331 9.00516,10.5606 8.54126,10.8607 8.02274,11.1063 7.5043,11.2974 6.93125,11.4338 6.35821,11.5156 5.78516,11.5702 5.18477,11.5156 4.61173,11.4338 4.03868,11.2974 3.52016,11.1063 3.00172,10.8607 2.53782,10.5606 2.10118,10.2331 1.69188,9.85105 1.30985,9.44175 0.982352,9.00512 0.682196,8.54121 0.436637,8.02277 0.245622,7.50426 0.109146,6.93122 0.0272719,6.35817 "/>
   <polygon id="_41919872" class="fil1" points="3.20634,2.67428 2.98805,2.70155 2.79704,2.83802 2.6879,3.00177 2.66063,3.22005 2.6879,3.43834 2.82431,3.60208 2.98805,3.71122 3.20634,3.7385 3.37009,3.7385 3.37009,3.95685 3.42469,4.14786 3.53383,4.33888 3.72485,4.44802 3.94313,4.47529 5.60774,4.47529 5.60774,4.85732 5.06196,4.85732 4.84368,4.91192 4.65266,5.02106 4.54352,5.18481 4.48892,5.40309 4.48892,6.13989 4.54352,6.35817 4.65266,6.54919 4.84368,6.65833 5.06196,6.68566 5.60774,6.68566 5.60774,7.06769 3.94313,7.06769 3.72485,7.12223 3.53383,7.23144 3.42469,7.39512 3.37009,7.61347 3.37009,7.80448 3.20634,7.80448 2.98805,7.83175 2.79704,7.96817 2.6879,8.13191 2.66063,8.3502 2.6879,8.56855 2.82431,8.73229 2.98805,8.84143 3.20634,8.89597 3.94313,8.89597 4.13415,8.84143 4.32517,8.73229 4.43431,8.54128 4.46165,8.3502 4.43431,8.13191 4.2979,7.96817 4.13415,7.83175 3.94313,7.80448 3.72485,7.80448 3.72485,7.61347 3.75212,7.5316 3.77939,7.47699 3.86127,7.44972 3.94313,7.42245 5.60774,7.42245 5.60774,7.80448 5.41673,7.80448 5.19844,7.83175 5.0347,7.96817 4.89822,8.13191 4.87095,8.3502 4.92555,8.56855 5.0347,8.73229 5.19844,8.84143 5.41673,8.89597 6.15352,8.89597 6.34454,8.84143 6.53555,8.73229 6.6447,8.54128 6.67197,8.3502 6.61743,8.13191 6.50828,7.96817 6.34454,7.83175 6.15352,7.80448 5.9625,7.80448 5.9625,7.42245 7.62705,7.42245 7.70892,7.44972 7.76352,7.47699 7.7908,7.5316 7.81806,7.61347 7.81806,7.80448 7.62705,7.80448 7.40876,7.83175 7.24502,7.96817 7.1086,8.13191 7.08133,8.3502 7.1086,8.56855 7.24502,8.73229 7.40876,8.84143 7.62705,8.89597 8.33657,8.89597 8.55486,8.84143 8.74588,8.73229 8.85502,8.54128 8.90962,8.3502 8.85502,8.13191 8.74588,7.96817 8.55486,7.83175 8.33657,7.80448 8.17283,7.80448 8.17283,7.61347 8.11829,7.39512 8.00908,7.23144 7.81806,7.09496 7.62705,7.06769 5.9625,7.06769 5.9625,6.68566 6.48095,6.68566 6.72657,6.65833 6.89032,6.54919 7.02673,6.35817 7.054,6.13989 7.054,5.40309 7.02673,5.18481 6.89032,5.02106 6.72657,4.91192 6.48095,4.85732 5.9625,4.85732 5.9625,4.47529 7.62705,4.47529 7.8454,4.44802 8.00908,4.31154 8.11829,4.14786 8.17283,3.95685 8.17283,3.7385 8.33657,3.7385 8.55486,3.71122 8.74588,3.57482 8.85502,3.41107 8.90962,3.22005 8.85502,3.00177 8.74588,2.81076 8.55486,2.70155 8.33657,2.67428 7.62705,2.67428 7.40876,2.70155 7.24502,2.83802 7.1086,3.00177 7.08133,3.22005 7.1086,3.43834 7.24502,3.60208 7.40876,3.71122 7.62705,3.7385 7.81806,3.7385 7.81806,3.95685 7.7908,4.01138 7.76352,4.06599 7.70892,4.12053 7.62705,4.12053 5.9625,4.12053 5.9625,3.7385 6.15352,3.7385 6.34454,3.71122 6.53555,3.57482 6.6447,3.41107 6.67197,3.22005 6.61743,3.00177 6.50828,2.81076 6.34454,2.70155 6.15352,2.67428 5.41673,2.67428 5.19844,2.70155 5.0347,2.83802 4.89822,3.00177 4.87095,3.22005 4.92555,3.43834 5.0347,3.60208 5.19844,3.71122 5.41673,3.7385 5.60774,3.7385 5.60774,4.12053 3.94313,4.12053 3.86127,4.12053 3.77939,4.06599 3.75212,4.01138 3.72485,3.95685 3.72485,3.7385 3.94313,3.7385 4.13415,3.71122 4.32517,3.57482 4.43431,3.41107 4.46165,3.22005 4.43431,3.00177 4.2979,2.81076 4.13415,2.70155 3.94313,2.67428 "/>
  </g>
 </g>
</svg>
