<?xml version="1.0" encoding="UTF-8"?>
<!DOCTYPE svg PUBLIC "-//W3C//DTD SVG 1.1//EN" "http://www.w3.org/Graphics/SVG/1.1/DTD/svg11.dtd">
<!-- Creator: CorelDRAW -->
<svg xmlns="http://www.w3.org/2000/svg" xml:space="preserve" width="237.88mm" height="237.88mm" style="shape-rendering:geometricPrecision; text-rendering:geometricPrecision; image-rendering:optimizeQuality; fill-rule:evenodd; clip-rule:evenodd"
viewBox="0 0 11.3296 11.3296"
 xmlns:xlink="http://www.w3.org/1999/xlink">
 <defs>
  <style type="text/css">
   <![CDATA[
    .fil0 {fill:#089FB0}
    .fil1 {fill:white}
   ]]>
  </style>
 </defs>
 <g id="Layer_x0020_1">
  <metadata id="CorelCorpID_0Corel-Layer"/>
  <g id="_220834744">
   <polygon id="_41919680" class="fil0" points="-0,5.66478 0.0532808,5.07695 0.133262,4.51582 0.26659,3.95468 0.45319,3.44696 0.693075,2.9393 0.986303,2.48504 1.30623,2.05748 1.67944,1.65669 2.07929,1.2826 2.50583,0.961922 2.95903,0.668004 3.46549,0.427556 3.97203,0.240452 4.53184,0.106876 5.09165,0.0267047 5.67817,0 6.23798,0.0267047 6.79779,0.106876 7.3576,0.240452 7.86407,0.427556 8.3706,0.668004 8.82379,0.961922 9.25034,1.2826 9.65019,1.65669 10.0234,2.05748 10.3433,2.48504 10.6366,2.9393 10.8764,3.44696 11.063,3.95468 11.1964,4.51582 11.2763,5.07695 11.3296,5.66478 11.2763,6.22598 11.1964,6.78711 11.063,7.34824 10.8764,7.8559 10.6366,8.36363 10.3433,8.81789 10.0234,9.24538 9.65019,9.64623 9.25034,10.0203 8.82379,10.3409 8.3706,10.6349 7.86407,10.8754 7.3576,11.0624 6.79779,11.196 6.23798,11.2762 5.67817,11.3296 5.09165,11.2762 4.53184,11.196 3.97203,11.0624 3.46549,10.8754 2.95903,10.6349 2.50583,10.3409 2.07929,10.0203 1.67944,9.64623 1.30623,9.24538 0.986303,8.81789 0.693075,8.36363 0.45319,7.8559 0.26659,7.34824 0.133262,6.78711 0.0532808,6.22598 "/>
   <path id="_41919584" class="fil1" d="M5.66482 6.8806l-0.159966 0.0267047 -0.106619 0.0801713 -0.0799856 0.106871 -0.0267 0.160343 0 0.0801713 0.0533428 0.106871 0.133262 0.106876 -0.133262 0.774937 0.613151 0 -0.133324 -0.774937 0.159966 -0.106876 0.026638 -0.106871 0.0267047 -0.0801713 -0.0533428 -0.160343 -0.0799856 -0.106871 -0.106619 -0.0801713 -0.133262 -0.0267047 0 0zm-0.0267047 -4.51581l-0.213242 0.0267 -0.186604 0.0534666 -0.186604 0.106876 -0.133324 0.133576 -0.133262 0.133638 -0.0799808 0.187043 -0.0799856 0.187043 0 0.187047 -0.026638 0 0 2.21782 2.10599 0 0 -2.21782 0 0 -0.026638 -0.213747 -0.0799856 -0.187043 -0.106619 -0.187047 -0.106686 -0.133638 -0.1599 -0.133576 -0.186604 -0.0801713 -0.186604 -0.0534666 -0.213309 -0.0267 0 0zm0 -0.641304l0.346571 0.0267 0.319866 0.0801713 0.266585 0.160343 0.266585 0.187043 0.213309 0.240452 0.1599 0.293981 0.106686 0.293914 0.0532761 0.347385 -0.133262 0 0.133262 0 0 2.24453 0.613156 0 0.186604 0.0534666 0.133262 0.0801713 0.0799808 0.133576 0.0533428 0.160343 0 3.12634 -0.0533428 0.187043 -0.0799808 0.133576 -0.133262 0.0801713 -0.186604 0.0534714 -4.66516 0 -0.159962 -0.0534714 -0.159966 -0.0801713 -0.0799189 -0.133576 -0.0267047 -0.187043 0 -3.12634 0.0267047 -0.160343 0.0799189 -0.133576 0.159966 -0.0801713 0.159962 -0.0534666 0.613156 0 0 -2.21782 0.026638 0 0.026638 -0.347385 0.106624 -0.293919 0.133324 -0.293919 0.213247 -0.240509 0.239942 -0.213747 0.293228 -0.133638 0.319866 -0.106876 0.346566 -0.0267 0 0z"/>
  </g>
 </g>
</svg>
