<?xml version="1.0" encoding="UTF-8"?>
<!DOCTYPE svg PUBLIC "-//W3C//DTD SVG 1.0//EN" "http://www.w3.org/TR/2001/REC-SVG-20010904/DTD/svg10.dtd">
<!-- Creator: CorelDRAW X7 -->
<?xml-stylesheet href="icon1.css" type="text/css"?>
<svg xmlns="http://www.w3.org/2000/svg" xml:space="preserve" width="4.97603cm" height="4.97603cm" version="1.0" style="shape-rendering:geometricPrecision; text-rendering:geometricPrecision; image-rendering:optimizeQuality; fill-rule:evenodd; clip-rule:evenodd"
viewBox="0 0 35 35"
 xmlns:xlink="http://www.w3.org/1999/xlink">
 <g id="Layer_x0020_1">
  <metadata id="CorelCorpID_0Corel-Layer"/>
  <g id="_2704646289392">
   <circle class="fil0" cx="17" cy="17" r="17"/>
   <path class="fil1" d="M18 19l9 0 0 1 0 0 0 2 -1 0 0 -2 -8 0 0 2 -1 0 0 -2 -8 0 0 2 -1 0 0 -2 0 0 0 -1 9 0 0 -1 1 0 0 1zm6 4l5 0 0 6 -5 0 0 -6zm-1 -17l0 10 -10 0 0 -10 10 0zm-3 17l0 6 -5 0 0 -6 5 0zm-9 0l0 6 -5 0 0 -6 5 0zm6 12c10,0 18,-8 18,-18 0,-9 -8,-17 -18,-17 -9,0 -17,8 -17,17 0,10 8,18 17,18z"/>
  </g>
 </g>
</svg>
