<?xml version="1.0" encoding="UTF-8"?>
<!DOCTYPE svg PUBLIC "-//W3C//DTD SVG 1.1//EN" "http://www.w3.org/Graphics/SVG/1.1/DTD/svg11.dtd">
<!-- Creator: CorelDRAW X7 -->
<?xml-stylesheet href="icon3.css" type="text/css"?>
<svg xmlns="http://www.w3.org/2000/svg" xml:space="preserve" width="4.97603cm" height="4.97604cm" version="1.1" style="shape-rendering:geometricPrecision; text-rendering:geometricPrecision; image-rendering:optimizeQuality; fill-rule:evenodd; clip-rule:evenodd"
viewBox="0 0 350 350"
 xmlns:xlink="http://www.w3.org/1999/xlink">
 <g id="Layer_x0020_1">
  <metadata id="CorelCorpID_0Corel-Layer"/>
  <circle class="fil0" cx="175" cy="175" r="175"/>
  <path class="fil1" d="M175 0c96,0 175,78 175,175 0,96 -79,175 -175,175 -97,0 -175,-79 -175,-175 0,-97 78,-175 175,-175zm115 260c0,7 -7,12 -16,12l-198 0c-9,0 -16,-5 -16,-12 0,-6 7,-11 16,-11l198 0c9,0 16,5 16,11zm-108 -96l0 0 0 7 0 61 0 8 7 0 82 0 7 0 0 -8 0 -61 0 -7 -7 0 -82 0 -7 0zm-56 -86l0 0 0 7 0 61 0 7 7 0 82 0 7 0 0 -7 0 -61 0 -7 -7 0 -82 0 -7 0zm-53 86l0 0 -7 0 0 8 0 61 0 7 7 0 82 0 7 0 0 -7 0 -61 0 -8 -7 0 -82 0z"/>
 </g>
</svg>
