<?xml version="1.0" encoding="UTF-8"?>
<!DOCTYPE svg PUBLIC "-//W3C//DTD SVG 1.1//EN" "http://www.w3.org/Graphics/SVG/1.1/DTD/svg11.dtd">
<!-- Creator: CorelDRAW -->
<svg xmlns="http://www.w3.org/2000/svg" xml:space="preserve" width="237.88mm" height="237.88mm" style="shape-rendering:geometricPrecision; text-rendering:geometricPrecision; image-rendering:optimizeQuality; fill-rule:evenodd; clip-rule:evenodd"
viewBox="0 0 13.5876 13.5876"
 xmlns:xlink="http://www.w3.org/1999/xlink">
 <defs>
  <style type="text/css">
   <![CDATA[
    .fil0 {fill:#82C650}
    .fil1 {fill:white}
   ]]>
  </style>
 </defs>
 <g id="Layer_x0020_1">
  <metadata id="CorelCorpID_0Corel-Layer"/>
  <g id="_223278384">
   <polygon id="_220962872" class="fil0" points="11.6,1.98757 11.058,1.51778 10.5159,1.1203 9.93769,0.758934 9.32337,0.505987 8.70905,0.289144 8.09474,0.108418 7.44422,0.0361966 6.79379,0 6.14328,0.0361966 5.49285,0.108418 4.84233,0.289144 4.22801,0.505987 3.61369,0.758934 3.03549,1.1203 2.49347,1.51778 1.98749,1.98757 1.51779,2.49347 1.12022,3.03557 0.758854,3.61377 0.46979,4.22809 0.252953,4.84241 0.108424,5.49284 0.0361109,6.14335 -0,6.79378 0.0361109,7.44429 0.108424,8.09472 0.252953,8.70904 0.46979,9.35956 0.758854,9.93776 1.12022,10.5159 1.51779,11.058 1.98749,11.6001 2.49347,12.0698 3.03549,12.4673 3.61369,12.7926 4.22801,13.0817 4.84233,13.2985 5.49285,13.443 6.14328,13.5514 6.79379,13.5876 7.44422,13.5514 8.09474,13.443 8.70905,13.2985 9.32337,13.0817 9.93769,12.7926 10.5159,12.4673 11.058,12.0698 11.6,11.6001 12.0337,11.058 12.4673,10.5159 12.7925,9.93776 13.0816,9.35956 13.2984,8.70904 13.4431,8.09472 13.5514,7.44429 13.5876,6.79378 13.5514,6.14335 13.4431,5.49284 13.2984,4.84241 13.0816,4.22809 12.7925,3.61377 12.4673,3.03557 12.0337,2.49347 "/>
   <path id="_220962632" class="fil1" d="M4.58938 4.48104l0.325261 0.0722218 0.252948 0.180726 0.180726 0.252948 0.0361109 0.28915 0 0.216751 0 0 -0.180726 -0.0722218 -0.0722218 -0.108418 -0.0723075 -0.144535 0 -0.0361966 -0.0361109 -0.0722218 -0.0723075 -0.0361966 -0.0361109 0 -0.0723075 0.0723075 -0.180646 0.144535 -0.144529 0.108418 -0.361366 0.108418 -0.144621 0.0361109 -0.144529 0 -0.0722218 0 -0.0361966 0 -0.0361109 0 0 -0.216751 0.0361109 -0.28915 0.180726 -0.252948 0.252953 -0.180726 0.325255 -0.0722218 0.0722218 0zm-0.939574 1.37316l0 0.252953 -0.0361109 -0.0722218 -0.0361109 -0.0723132 0 -0.0722218 0.0722218 -0.0361966 0 0zm1.73462 0l0.0361166 0.0361966 0.0361966 0.0722218 -0.0361966 0.0723132 -0.0361166 0.0722218 0 -0.252953 0 0zm-0.578203 -0.469784l0.144529 0.180726 0.216837 0.144529 0 0.505901 -0.0722218 0.216837 -0.108418 0.180726 -0.180726 0.108418 -0.216842 0.0361109 -0.144529 0 -0.216837 -0.0361109 -0.180646 -0.108418 -0.108418 -0.180726 -0.0723075 -0.216837 0 -0.46979 0.216842 -0.0361109 0.216837 -0.0361109 0.252948 -0.108418 0.252953 -0.180726 0 0zm-0.0723075 1.6262l0 0.144529 -0.216757 0.216837 -0.216837 -0.18064 0 -0.144615 0 -0.0361109 0.144529 0 0.144529 0 0.144535 0 0 0zm0.253033 0.252948l0.0722218 0.0361109 -0.18064 0.361457 -0.0361966 -0.0361966 -0.144535 -0.108424 0.252953 -0.252948 0.0361966 0 0 0zm-0.93958 0l0.0361166 0.0361109 0.252948 0.253033 -0.18064 0.108424 -0.180732 -0.361457 0.0723075 -0.0361109 0 0zm0.433593 0.433679l0.144615 0.0722218 -0.0723075 0.0723075 -0.108418 0 -0.0361109 -0.0723075 0.0722218 -0.0722218 0 0zm-0.289058 0.216837l0.0361109 0.0722218 -0.0361109 0.216837 -0.0723075 -0.252948 0.0361966 0 0.0361109 -0.0361109 0 0zm0.614319 0l0.0361109 0.0361109 0.0361966 0 -0.0723075 0.252948 0 -0.216837 0 -0.0722218 0 0zm-0.252953 0.18064l0.108418 0.542097 -0.289144 0 0.108418 -0.542097 0.0723075 0zm0.722738 -0.65043l0.289064 0.108418 0 0 0.0723075 0.0361109 0.144529 0.108424 0.108418 0.18064 0.0723075 0.144615 0 0.144529 0 0.46979 -0.325255 0 0 -0.46979 -0.0361109 -0.108418 -0.0723075 -0.0361109 -0.108418 0.0361109 -0.0361166 0.108418 0 0.46979 -0.433673 0 0.325255 -1.19253 0 0zm-0.831156 -3.14398l-0.18064 0 -0.216842 0.0723075 -0.325255 0.216842 -0.216837 0.325169 -0.0722218 0.216837 0 0.180732 0 0.397477 -0.0723132 0.108418 -0.0361109 0.144529 0.0361109 0.144535 0.0361166 0.108418 0.108418 0.108418 0.144529 0.0361966 0.0361966 0.18064 0.108418 0.144529 0.252948 0.216842 0 0.0723075 -0.289144 0.18064 0 0 -0.397483 0.144529 -0.180726 0.108418 -0.18064 0.144615 -0.144529 0.252953 -0.0361966 0.361366 0 0.578208 0.0361966 0.0722218 0.0722218 0.0361966 0.795045 0 0.0723075 -0.0361966 0.0361109 -0.0722218 -0.0361109 -0.108418 -0.0723075 -0.0361966 -0.108418 0 0 -0.46979 -0.0361109 -0.108333 -0.108418 -0.0361966 -0.0723075 0.0361966 -0.0361166 0.108333 0 0.46979 -0.325255 0 0 -0.46979 0.0723075 -0.289058 0.108418 -0.18064 0.144529 -0.108424 0.0723132 -0.0361966 0 0 0.289058 -0.108418 0.361372 1.19253 -0.0723132 0.0361966 -0.0361109 0.0722218 0.0361109 0.108418 0.108424 0.0361966 0.108418 0.0361109 1.84304 0 0.108418 -0.0361109 0.0361109 -0.108418 0 -0.578208 -0.0723075 -0.325255 -0.144535 -0.252953 -0.18064 -0.180726 -0.180726 -0.0722218 -0.397483 -0.180726 -0.289144 -0.18064 0 -0.0723075 0.289144 -0.216842 0.0722218 -0.144529 0.0723075 -0.18064 0.108424 -0.0361966 0.108418 -0.108418 0.0722218 -0.108418 0 -0.144535 0 -0.144529 -0.0722218 -0.108418 0 -0.397477 -0.0361966 -0.180732 -0.0722218 -0.216837 -0.216842 -0.325169 -0.325255 -0.216842 -0.18064 -0.0723075 -0.216842 0 -0.108418 0z"/>
   <polygon id="_220962704" class="fil1" points="6.64926,2.74642 5.92644,2.78261 5.23989,2.99937 4.62558,3.32462 4.04737,3.7583 4.01117,3.83052 4.04737,3.90283 4.11959,3.97514 4.1919,3.93894 4.73391,3.54146 5.31212,3.21621 5.96263,3.03557 6.64926,2.96326 7.22738,3.03557 7.80559,3.18009 8.34769,3.43304 8.85359,3.7583 8.67294,3.7583 8.56452,3.79441 8.52833,3.86672 8.56452,3.97514 8.67294,4.01125 9.14265,4.01125 9.25106,3.97514 9.28726,3.86672 9.28726,3.43304 9.25106,3.36073 9.14265,3.32462 9.07042,3.36073 9.03431,3.43304 9.03431,3.57757 8.49222,3.21621 7.91401,2.96326 7.29969,2.78261 6.64926,2.74642 "/>
   <polygon id="_220962896" class="fil1" points="4.1919,9.14271 4.11959,9.17883 4.08348,9.25114 4.08348,9.68473 4.11959,9.75703 4.1919,9.79314 4.30032,9.75703 4.33643,9.68473 4.33643,9.5402 4.84233,9.86545 5.42054,10.1184 5.99874,10.2629 6.64926,10.3352 7.3358,10.2629 7.98632,10.0823 8.60063,9.79314 9.14265,9.39567 9.17884,9.32336 9.14265,9.21503 9.07042,9.17883 8.96201,9.21503 8.45611,9.57639 7.8779,9.86545 7.26358,10.01 6.61306,10.0823 6.03485,10.0462 5.49285,9.90156 4.95075,9.68473 4.48096,9.35956 4.6978,9.35956 4.77011,9.32336 4.80622,9.25114 4.77011,9.17883 4.6978,9.14271 "/>
   <path id="_220963016" class="fil1" d="M8.85359 4.48104l0.289058 0.0722218 0.253033 0.180726 0.180646 0.252948 0.0723075 0.28915 0 0.216751 -0.0361966 0 -0.144529 -0.0722218 -0.108424 -0.108418 -0.0722218 -0.144535 0 -0.0361966 -0.0361966 -0.0722218 -0.0722218 -0.0361966 0 0 -0.108418 0.0723075 -0.144529 0.108418 -0.180726 0.108424 -0.325261 0.144529 -0.18064 0.0361109 -0.108418 0 -0.0723075 0 -0.0361166 0 -0.0723075 0 0 -0.216751 0.0723075 -0.28915 0.180732 -0.252948 0.252948 -0.180726 0.289064 -0.0722218 0.108418 0zm-0.93958 1.33705l0 0.252953 -0.0722218 -0.0361109 0 -0.0723132 0 -0.0722218 0.0722218 -0.0723075 0 0zm1.69843 0.0361109l0.0361966 0.0361966 0.0361109 0.0722218 0 0.0723132 -0.0723075 0.0361109 0 -0.216842 0 0zm-0.542012 -0.469784l0.108418 0.180726 0.216837 0.144529 0 0.505901 -0.0361966 0.216837 -0.144529 0.144529 -0.18064 0.144615 -0.180726 0.0361109 -0.144535 0 -0.216837 -0.0361109 -0.180726 -0.144615 -0.144529 -0.144529 -0.0361109 -0.216837 0 -0.46979 0.18064 -0.0361109 0.253033 -0.0722218 0.252953 -0.108418 0.252948 -0.144615 0 0zm-0.0723075 1.59009l0 0.18064 -0.252948 0.216837 -0.216842 -0.216837 0 -0.108418 0 -0.0722218 0.144615 0.0361109 0.180646 0 0.144529 -0.0361109 0 0zm-0.686627 0.289058l0.0361966 0.0361109 0.252948 0.216837 -0.216837 0.144621 -0.144529 -0.361457 0.0722218 -0.0361109 0 0zm0.867352 0l0.108418 0.0361109 -0.180726 0.361457 -0.0361109 -0.0361966 -0.144529 -0.108424 0.252948 -0.252948 0 0 0 0zm-0.433673 0.433679l0.108418 0.0361109 -0.0361109 0.108418 -0.108424 0 -0.0361109 -0.108418 0.0722275 -0.0361109 0 0zm-0.289064 0.216837l0.0361109 0.0722218 -0.0361109 0.180726 -0.0723075 -0.216837 0.0361109 -0.0361109 0.0361966 0 0 0zm0.614319 0l0 0 0.0722218 0.0361109 -0.0722218 0.216837 -0.0361109 -0.180726 0.0361109 -0.0722218 0 0zm-0.252948 0.18064l0.0722218 0.505901 -0.252953 0 0.0723075 -0.505901 0.108424 0zm0.686541 -0.65043l0.289144 0.108418 0 0 0.0723075 0.0361109 0.144529 0.0723132 0.108424 0.216751 0.0722218 0.289144 0 0.433593 -0.325175 0 0 -0.46979 -0.0361966 -0.0722218 -0.0722218 -0.0361109 -0.0723075 0.0361109 -0.0361109 0.0722218 0 0.46979 -0.46979 0 0.325175 -1.15633 0 0zm-0.794965 -3.14398l-0.216837 0 -0.180726 0.0723075 -0.325175 0.216842 -0.216837 0.325169 -0.0723075 0.216837 0 0.180732 0 0.397477 -0.0722218 0.108418 -0.0361966 0.144529 0.0361966 0.144535 0.0361109 0.108418 0.108418 0.0723075 0.144529 0.0723075 0.0361109 0.144529 0.0723075 0.144529 0.289064 0.252953 0 0.0361109 -0.289064 0.180726 0 0 -0.397477 0.18064 -0.180726 0.0723075 -0.180646 0.180726 -0.144615 0.252953 -0.0361109 0.325169 0 0.578208 0.0361109 0.108418 0.0723075 0.0361966 0.795045 0 0.0722275 -0.0361966 0.0361966 -0.108418 -0.0361966 -0.0722218 -0.0722275 -0.0361966 -0.108418 0 0 -0.505901 -0.0361109 -0.0722218 -0.108418 -0.0361966 -0.0723075 0.0361966 -0.0361109 0.0722218 0 0.505901 -0.325261 0 0 -0.46979 0.0723075 -0.289058 0.108424 -0.18064 0.144529 -0.108424 0.0722218 -0.0361966 0 0 0.289144 -0.108418 0.325175 1.19253 -0.0361109 0.0361966 -0.0361109 0.0722218 0.0361109 0.0723075 0.0723075 0.0361109 1.95138 0 0.108418 -0.0361109 0.0361109 -0.0723075 0 -0.578208 -0.0722218 -0.325169 -0.144529 -0.252953 -0.180732 -0.144615 -0.18064 -0.108418 -0.397562 -0.144529 -0.252953 -0.18064 0 -0.0723075 0.252953 -0.252953 0.0723075 -0.144529 0.0722218 -0.144529 0.108418 -0.0723075 0.108418 -0.0723075 0.0723075 -0.108418 0.0361109 -0.144535 -0.0361109 -0.144529 -0.0723075 -0.108418 0 -0.397477 -0.0361109 -0.180732 -0.0361109 -0.216837 -0.253033 -0.325169 -0.325175 -0.216842 -0.180726 -0.0723075 -0.216837 0 -0.0722275 0z"/>
  </g>
 </g>
</svg>
