<?xml version="1.0" encoding="UTF-8"?>
<!DOCTYPE svg PUBLIC "-//W3C//DTD SVG 1.1//EN" "http://www.w3.org/Graphics/SVG/1.1/DTD/svg11.dtd">
<!-- Creator: CorelDRAW -->
<svg xmlns="http://www.w3.org/2000/svg" xml:space="preserve" width="237.88mm" height="237.88mm" style="shape-rendering:geometricPrecision; text-rendering:geometricPrecision; image-rendering:optimizeQuality; fill-rule:evenodd; clip-rule:evenodd"
viewBox="0 0 13.1607 13.1607"
 xmlns:xlink="http://www.w3.org/1999/xlink">
 <defs>
  <style type="text/css">
   <![CDATA[
    .fil0 {fill:#82C650}
    .fil1 {fill:white}
   ]]>
  </style>
 </defs>
 <g id="Layer_x0020_1">
  <metadata id="CorelCorpID_0Corel-Layer"/>
  <g id="_220954928">
   <polygon id="_220953800" class="fil0" points="13.1607,6.58036 13.1258,5.88033 13.0207,5.25033 12.8457,4.62026 12.6357,3.99026 12.3557,3.43021 12.0057,2.87017 11.6557,2.38016 11.2006,1.92513 10.7456,1.4701 10.2556,1.12008 9.69554,0.77007 9.1355,0.490086 8.5055,0.280061 7.87542,0.105013 7.24542,0.0350595 6.58037,0 5.88033,0.0350595 5.25025,0.105013 4.62026,0.280061 3.99026,0.490086 3.43022,0.77007 2.87017,1.12008 2.38016,1.4701 1.92514,1.92513 1.4701,2.38016 1.12009,2.87017 0.77007,3.43021 0.490009,3.99026 0.279984,4.62026 0.105013,5.25033 0.0349765,5.88033 -0,6.58036 0.0349765,7.24542 0.105013,7.8755 0.279984,8.5055 0.490009,9.13549 0.77007,9.69554 1.12009,10.2556 1.4701,10.7456 1.92514,11.2006 2.38016,11.6557 2.87017,12.0057 3.43022,12.3557 3.99026,12.6357 4.62026,12.8458 5.25025,13.0207 5.88033,13.1258 6.58037,13.1607 7.24542,13.1258 7.87542,13.0207 8.5055,12.8458 9.1355,12.6357 9.69554,12.3557 10.2556,12.0057 10.7456,11.6557 11.2006,11.2006 11.6557,10.7456 12.0057,10.2556 12.3557,9.69554 12.6357,9.13549 12.8457,8.5055 13.0207,7.8755 13.1258,7.24542 "/>
   <path id="_220953488" class="fil1" d="M5.91531 4.37525l0 0.210031 -0.105013 -0.0700416 0 -0.0699531 0.0350595 -0.0700361 0.0699531 0 0 0zm0.0700361 0.420056l0.0699531 0.0349765 0.0350595 0.0700361 -0.0350595 0.0699531 -0.0699531 0.0350595 0 -0.210025 0 0zm-0.0349765 -0.630081l-0.0700361 0.0350595 0 0.0349765 -0.175049 0.0700361 -0.0699586 0.0699531 0 0.105013 0 0.105018 0.0699586 0.105013 0.175049 0.0700361 0 0.279978 -0.0700361 -0.0349765 -0.105013 -0.0350595 -0.0349821 -0.0349765 -0.0349765 0.0349765 -0.0349765 0.0700361 0.0349765 0.0349765 0.105018 0.105013 0.139989 0.0350595 0 0.0349765 0.0700361 0.0349765 0 -0.0349765 0.0349765 0 0 -0.0700361 0.174966 -0.105013 0.0700361 -0.0699531 0 -0.105013 0 -0.139989 -0.0700361 -0.0700361 -0.174966 -0.0700361 0 -0.279984 0.105013 0.0349765 0.0699531 0.0350595 0.0350595 -0.0350595 0.0349765 -0.0349765 -0.0349765 -0.0700361 -0.105013 -0.0349765 -0.105013 0 0 -0.0349765 -0.0349765 -0.0350595 0 0 0 0z"/>
   <path id="_220953680" class="fil1" d="M7.80547 3.22019l0.279984 0.0700361 0.245002 0.139989 0.139989 0.245002 0.0700361 0.280067 -0.0700361 0.279978 -0.139989 0.245002 -0.245002 0.139995 -0.279984 0.0700361 -0.245085 -0.0700361 -0.245002 -0.139995 -0.139995 -0.245002 -0.0699531 -0.279978 0.0699531 -0.280067 0.139995 -0.245002 0.210025 -0.139989 0.280061 -0.0700361 0 0zm0 -0.210025l-0.175049 0 -0.174966 0.0700361 -0.315043 0.210025 -0.175049 0.279978 -0.0699531 0.210031 0 0.175049 0 0.209942 0.0699531 0.175049 0.175049 0.279984 0.315043 0.210025 0.174966 0.0700361 0.175049 0.0349765 0.209948 -0.0349765 0.175049 -0.0700361 0.315038 -0.210025 0.174966 -0.279984 0.0700361 -0.175049 0.0349765 -0.209942 -0.0349765 -0.175049 -0.0700361 -0.210031 -0.174966 -0.279978 -0.315038 -0.210025 -0.175049 -0.0700361 -0.209948 0 0 0z"/>
   <path id="_220955552" class="fil1" d="M5.91531 3.95528l0.175049 0.0349765 0.174966 0.0700361 0.245007 0.209942 0.105013 0.315043 0 0.105013 -0.0349765 0.279978 -0.139995 0.210025 -0.245002 0.175054 -0.280061 0.0349765 -0.279984 -0.0349765 -0.245002 -0.175054 -0.140072 -0.210025 -0.0699531 -0.279978 0.0699531 -0.279984 0.140072 -0.245085 0.245002 -0.139989 0.279984 -0.0699531 0 0zm0 -0.385079l0.315038 0.0350595 0.245007 0.139989 0 0.174971 -0.279984 -0.139989 -0.280061 -0.0700416 -0.210025 0.0350595 -0.174971 0.0349821 -0.280061 0.210025 -0.209942 0.315038 -0.0700361 0.174966 0 0.175054 0 0.209942 0.0700361 0.175049 0.209942 0.279984 0.280061 0.210025 0.174971 0.0700361 0.210025 0 0.315038 -0.0349765 0.279984 -0.175049 0.210025 -0.210031 0.105013 -0.315038 0.139989 0.140072 -0.139989 0.31496 -0.245002 0.245085 -0.315043 0.174966 -0.350014 0.0349765 -0.210025 0 -0.209948 -0.0699531 -0.210025 -0.105013 -0.175049 -0.139989 -0.105013 -0.175054 -0.105013 -0.174966 -0.0699586 -0.210025 -0.0349765 -0.210025 0.0349765 -0.245007 0.0699586 -0.210025 0.105013 -0.174966 0.105013 -0.175049 0.175049 -0.139995 0.210025 -0.105013 0.209948 -0.0349765 0.210025 -0.0350595 0 0zm1.89015 -0.910059l-0.385074 0.0350595 -0.384996 0.210025 -0.279978 0.279984 -0.210025 0.350014 -0.315043 -0.139989 -0.315038 -0.0350595 -0.279984 0.0350595 -0.245002 0.0699531 -0.210025 0.140072 -0.210025 0.139989 -0.174971 0.210031 -0.105013 0.209942 -0.105013 0.280061 0 0.245007 0 0.279978 0.105013 0.245085 0.105013 0.245007 0.174971 0.174966 0.210025 0.175049 0.210025 0.139989 0.245002 0.0699531 0.279984 0.0350595 0.42005 -0.0700361 0.35002 -0.174966 0.279978 -0.280061 0.210025 -0.384996 0.315043 0.139989 0.315038 0.0349821 0.245007 -0.0349821 0.210025 -0.0349765 0.209942 -0.105013 0.210025 -0.139989 0.280067 -0.315038 0.105013 -0.210031 0.0699531 -0.210025 -0.0349765 -0.0699531 -0.0700361 -0.0700361 0 0 -0.105013 0.0349765 -0.0349765 0.0700361 -0.139995 0.315038 -0.245002 0.279984 -0.315038 0.175049 -0.384996 0.0699531 -0.280061 -0.0349765 -0.245002 -0.105013 -0.245007 -0.174966 -0.175049 -0.24509 -0.0349765 -0.174966 -0.0699531 -0.139989 -0.0350595 -0.245002 0.0350595 -0.24509 0.0699531 -0.245002 0.139989 -0.174966 0.175049 -0.175049 0.210031 -0.139995 0.209942 -0.0699531 0.245085 -0.0350595 0.384996 0.0700361 0.315038 0.174971 0.245002 0.280061 0.139995 0.350014 0.0349765 0.0699586 0.0700361 0 0.0349765 0 0.105013 -0.0349765 0 -0.105018 -0.0699531 -0.210025 -0.105013 -0.209942 -0.280067 -0.315043 -0.210025 -0.139989 -0.209942 -0.0700361 -0.210025 -0.0700361 -0.245007 0 0 0z"/>
   <path id="_220963208" class="fil1" d="M7.80547 3.64024l0 0.210031 -0.105013 -0.0700361 -0.0350595 -0.0349821 0.0350595 -0.0700361 0.105013 -0.0349765 0 0zm0.0349765 0.420056l0.105013 0.0349765 0.0349765 0.0699531 -0.0349765 0.105013 -0.105013 0.0350595 0 -0.245002 0 0zm-0.0349765 -0.630081l-0.0350595 0 0 0.0349765 0 0.0350595 -0.210025 0.0699531 -0.0349765 0.0700361 -0.0349765 0.105013 0.0349765 0.105018 0.0349765 0.105013 0.210025 0.0699531 0 0.280061 -0.105013 -0.0350595 -0.0699531 -0.0699531 -0.0350595 0 -0.0699531 0.0349765 0 0.0700361 0 0.0349765 0.105013 0.105013 0.174966 0 0 0.0699531 0 0 0.0350595 0.0350595 0.0349765 -0.0350595 0 -0.0699531 0.210031 -0.0700361 0.0349765 -0.105013 0.0349765 -0.105013 0 -0.10493 -0.0699531 -0.0700361 -0.175054 -0.105013 0 -0.245007 0.0700361 0 0.0699586 0.0349765 0 0 0.0700361 -0.0349765 0 -0.0349765 0 -0.0700361 -0.105018 -0.0349765 -0.139989 0 0 -0.0350595 -0.0349765 -0.0349765 0 0z"/>
   <path id="_220963232" class="fil1" d="M4.7953 6.72044l0 0.0349765 0.0349765 0.0349765 0.0349765 0.0700361 0.105018 0.245007 0.105013 0.350014 0.174966 0.384996 0.140072 0.385074 0.105013 0.31496 0.105013 0.245002 0 0.105013 0.0349765 0.0350595 0 0 -0.0349765 0.0349765 -0.525063 0.174966 0 -0.0349765 -0.0349765 -0.0699531 -0.105013 -0.245085 -0.105018 -0.350014 -0.139989 -0.384996 -0.175049 -0.384991 -0.105013 -0.35002 -0.105013 -0.280061 -0.0349765 -0.0699531 0 -0.0350595 0.490003 -0.209948 0.0350595 0 0 0zm-0.735094 0.279984l0.805047 2.20512 -0.174966 0.0700361 -0.210025 0.105013 -0.455032 0.174966 -0.245002 0.0700361 -0.210025 0.0699531 -0.175049 0.0700361 -0.0699586 0.0349765 -0.0350595 0 -0.0349765 -0.0349765 -0.805047 -2.13516 0 -0.0349821 0.0350595 0 0.419973 -0.174966 0.42005 -0.175049 0.384996 -0.139989 0.350014 -0.105013 0 0zm5.67031 -1.68013l-0.139989 0 -0.139995 0.0350595 -0.210025 0.174966 -1.26008 1.05005 -0.0699531 -0.139989 -0.105013 -0.0699531 -0.140072 -0.0700361 -0.209942 -0.0349765 -0.24509 0 -0.245002 0 -0.350014 0 -0.279984 0 -0.210025 0 -0.139989 0.0349765 -0.139989 0.0349765 -0.805047 0.315038 0 -0.0349765 -0.105013 -0.105013 -0.139995 -0.0350595 -0.105013 0 -0.630081 0.245085 -0.105013 0.0349765 -0.174966 0.0699531 -0.42005 0.175054 -0.524985 0.174966 -0.455032 0.175049 -0.105013 0.0700361 -0.0700361 0.0699531 0 0.105013 0 0.139995 0.805047 2.10018 0.105013 0.139995 0.174966 0.0699531 0.105018 -0.0349765 0.105013 -0.0349765 0.175049 -0.0700416 0.245002 -0.105013 0.279984 -0.105013 0.245002 -0.0699531 0.280061 -0.105013 0.210031 -0.0700361 0.139989 -0.0699531 0.629998 -0.24509 0.105013 -0.0349765 0.0350595 -0.105013 0.0349765 -0.105013 -0.0349765 -0.105013 0 -0.0349765 0.139989 -0.0349765 0.105013 -0.0700361 0.174966 -0.0349765 0.175049 -0.0349765 0.105018 0 0.174966 0 0.0700361 -0.0350595 0.0349765 -0.105013 -0.0349765 -0.0699586 -0.0700361 -0.0350595 -0.174966 0 -0.140078 0 -0.174966 0.0350595 -0.210025 0.0699586 -0.105013 0.0350595 -0.139989 0.0699531 -0.629998 -1.68005 0.769987 -0.315038 0.105013 -0.0349765 0.139989 -0.0350595 0.140072 0 0.245007 0 0.174966 0 0.175049 0 0.279978 0 0.280067 0 0.174966 0.0350595 0.105013 0.105013 0.0349765 0.0699531 0.0350595 0.0700361 -0.0350595 0.0699531 -0.0349765 0.0700416 -0.0700361 0.105013 -0.105013 0.0349765 -0.139989 0.0350595 -0.174971 0.0349765 -0.315038 0.0349765 -0.174966 0.0349765 -0.105013 0 -0.105013 0.0350595 -0.0350595 0 -0.0699586 0.0349765 -0.0350595 0.0700361 0.0700416 0.0699531 0.0700361 0.0350595 0.0349765 0 0.0349765 0 0.0700361 0 0.139989 -0.0350595 0.139989 0 0.35002 -0.0699531 0.140072 -0.0350595 0.139989 0 0.210025 -0.0699531 0.105013 -0.139989 0.0699531 -0.140072 0.0349821 -0.139995 1.40015 -1.12008 0.139989 -0.10493 0.174971 -0.0350595 0.105013 0 0.105013 0.0700361 0.0700361 0.0699531 0.0349765 0.105013 -0.0349765 0.140072 -0.0350595 0.139989 -0.0699531 0.0699586 -0.0350595 0.0350595 -0.0699531 0.0699531 -0.175049 0.210025 -0.279984 0.315038 -0.315038 0.315043 -0.315043 0.350014 -0.279978 0.279984 -0.174966 0.210025 -0.0700361 0.0699531 0 0 -0.210031 0.175049 -0.210025 0.105013 -0.174966 0.0349765 -0.139989 0.0349765 -0.210031 0 -0.0700361 0.0350595 -0.0349765 0.0699586 0.0349765 0.105013 0.0700361 0.0350595 0.245007 0 0.139989 -0.0350595 0.245002 -0.0699531 0.245007 -0.105018 0.245002 -0.210025 1.71511 -1.8551 0.105013 -0.175049 0.0700361 -0.174971 0 -0.245002 -0.0700361 -0.139989 -0.0699531 -0.105013 -0.210025 -0.105013 -0.175049 -0.0350595 0 0z"/>
  </g>
 </g>
</svg>
