<?xml version="1.0" encoding="UTF-8"?>
<!DOCTYPE svg PUBLIC "-//W3C//DTD SVG 1.1//EN" "http://www.w3.org/Graphics/SVG/1.1/DTD/svg11.dtd">
<!-- Creator: CorelDRAW -->
<svg xmlns="http://www.w3.org/2000/svg" xml:space="preserve" width="237.88mm" height="237.88mm" style="shape-rendering:geometricPrecision; text-rendering:geometricPrecision; image-rendering:optimizeQuality; fill-rule:evenodd; clip-rule:evenodd"
viewBox="0 0 16.1581 16.1581"
 xmlns:xlink="http://www.w3.org/1999/xlink">
 <defs>
  <style type="text/css">
   <![CDATA[
    .fil0 {fill:#24A8C2}
    .fil1 {fill:white}
   ]]>
  </style>
 </defs>
 <g id="Layer_x0020_1">
  <metadata id="CorelCorpID_0Corel-Layer"/>
  <g id="_220963136">
   <polygon id="_220963088" class="fil0" points="-0,8.07904 0.0430443,7.21957 0.128929,6.44609 0.343845,5.67252 0.601704,4.94198 0.945454,4.21144 1.37518,3.56689 1.84786,2.92225 2.36358,2.36358 2.92225,1.84786 3.56689,1.37518 4.21144,0.945454 4.94198,0.601704 5.67252,0.343845 6.44609,0.128929 7.21957,0.0430443 8.07904,0 8.89557,0.0430443 9.71209,0.128929 10.4856,0.343845 11.2162,0.601704 11.9037,0.945454 12.5913,1.37518 13.1929,1.84786 13.7946,2.36358 14.3102,2.92225 14.783,3.56689 15.1697,4.21144 15.5135,4.94198 15.7714,5.67252 15.9862,6.44609 16.1151,7.21957 16.1581,8.07904 16.1151,8.89557 15.9862,9.71209 15.7714,10.4856 15.5135,11.2161 15.1697,11.9037 14.783,12.5913 14.3102,13.1929 13.7946,13.7946 13.1929,14.3102 12.5913,14.783 11.9037,15.1697 11.2162,15.5135 10.4856,15.7714 9.71209,15.9862 8.89557,16.1151 8.07904,16.1581 7.21957,16.1151 6.44609,15.9862 5.67252,15.7714 4.94198,15.5135 4.21144,15.1697 3.56689,14.783 2.92225,14.3102 2.36358,13.7946 1.84786,13.1929 1.37518,12.5913 0.945454,11.9037 0.601704,11.2161 0.343845,10.4856 0.128929,9.71209 0.0430443,8.89557 "/>
   <path id="_220962728" class="fil1" d="M7.09065 6.44609l0.0859868 0.0858917 -0.515717 0.515717 -0.0858917 -0.128929 -0.0429424 -0.128929 0.0429424 -0.128929 0.0429424 -0.128929 0 0 0.257865 -0.0429492 0.214814 -0.0429424 0 0zm3.65278 1.93375l0.171872 0.17198 0.0859868 0.0429424 0.0859868 -0.0429424 0.429737 -0.0859868 0.0858849 0.0429424 0.257858 0.0430443 0.214916 0.0858849 0.386693 0.257858 0.257858 0.42973 0.0859868 0.214923 0.0429424 0.257757 0 0.171974 -0.0429424 0.171872 -0.816525 -0.816525 -0.0859868 -0.0858849 -0.128929 -0.0430443 -0.257757 -0.0429424 -0.257865 0.0429424 -0.171872 0.128929 -0.128929 0.171878 -0.0430443 0.171974 0 0.171872 0 0.171872 0.171974 0.214814 0.816423 0.816525 -0.171872 0.0430443 -0.214814 0.0429424 -0.257865 -0.0429424 -0.214916 -0.0859868 -0.386686 -0.257858 -0.30091 -0.386788 -0.0858849 -0.214821 -0.0429424 -0.257858 0 -0.0859868 0.0429424 -0.472679 0.0429424 -0.0858849 -0.0429424 -0.0430443 -0.171872 -0.171872 0.644551 -0.644653 0 0zm-5.67252 0.73064l0.343845 0.300808 1.67589 1.67598 0.214916 0.257763 -0.472673 0.472774 -2.23466 -2.23465 0.472679 -0.472679 0 0zm1.59 -5.84449l-0.34375 0.0430443 -0.343743 0.0858849 -0.0430443 0.0430443 -0.0429424 0.0858849 0 0.0859868 0.0429424 0.0429424 0.945454 0.945454 0.0859868 0.128936 0.0429424 0.214814 -0.128929 0.171872 -0.0859868 0.0430443 -0.128929 0.0429424 -0.128834 -0.0429424 -0.0430443 0 -0.0858849 -0.0859868 -0.945454 -0.945454 -0.128929 -0.0429424 0 0 -0.128929 0.0859868 -0.128929 0.343743 -0.0429424 0.343852 0.0429424 0.300801 0.0859868 0.300801 0.128929 0.257865 0.214814 0.214814 0.386794 0.343845 0.472673 0.171872 -0.0858849 0.171878 0 0.214916 0.0858849 0.214814 0.128929 0.214916 -0.343743 0.34375 -0.171872 0.214916 -0.0430443 0.257757 0.0430443 0.257858 0.128827 0.214923 -0.558564 0.515615 -0.300903 -0.300801 -0.128827 -0.0429424 -0.0859868 0.0429424 -0.816525 0.816525 -1.20321 1.20321 -0.0430443 0.0859868 0.0430443 0.128929 0.90241 0.945454 0.128929 0 0.0859868 0 0.0429424 -0.128929 -0.0429424 -0.0859868 -0.816525 -0.859467 1.11733 -1.11733 2.23456 2.23465 -1.11723 1.11733 -0.988396 -0.945454 -0.0859868 -0.0429424 -0.128929 0.0429424 -0.0429424 0.0859936 0.0429424 0.0858849 1.11733 1.11733 0.0859868 0.0430443 0.128834 -0.0430443 1.20331 -1.24625 0.816525 -0.77348 0.0429424 -0.128929 -0.0429424 -0.0859936 -0.257865 -0.257757 0.558666 -0.558659 0.171872 0.0858849 0.214916 0.0430443 0.171872 -0.0430443 0.214821 -0.0858849 0.0430443 -0.0859936 -0.0430443 -0.128929 -0.128929 -0.0429424 -0.0858917 0 -0.0859868 0.0858849 -0.128929 0 -0.128929 -0.0429424 -0.128929 -0.0858849 -0.128827 -0.0430443 -0.0859868 0.0430443 -0.644653 0.687493 -1.50401 -1.46108 0.644544 -0.644544 0.0430443 -0.0859868 -0.0430443 -0.128929 -0.0429424 -0.0859936 -0.0859868 -0.128827 -0.0429424 -0.128929 0.0429424 -0.171974 0.0859868 -0.128827 0.429737 -0.429839 0.773473 -0.773473 0.816525 -0.816525 0 -0.0429424 0.171872 -0.0429424 0.128936 0.0429424 0.0859868 0.0429424 0 0 0.0859868 0.171872 -0.0430443 0.214916 -0.0429424 0.0429424 -0.90241 0.859467 -0.0430443 0.128929 0.0430443 0.0859868 0.128929 0.0429424 0.0858849 -0.0429424 0.90241 -0.859467 0.0430443 -0.0429424 0.171872 -0.0430443 0.0859868 0 0.0858849 0.0859868 0.0430443 0 0.0429424 0.171878 -0.0429424 0.171872 0 0.0430443 -0.902511 0.90241 -0.0429424 0.0859868 0.0429424 0.128827 0.0429424 0.0430443 0.0430443 0 0.128936 -0.0430443 0.859467 -0.90241 0.0429424 -0.0429424 0.171872 -0.0430443 0.128929 0.0430443 0.0859868 0.0429424 0 0 0.0858849 0.171872 -0.0429424 0.214916 -0.0429424 0.0429424 -0.902511 0.90241 -0.0429424 0.0859936 0.0429424 0.128929 0.128929 0 0.0859868 0 0.90241 -0.90241 0.0430443 -0.0430443 0.171872 -0.0429424 0.0858917 0 0.0859868 0.0859868 0.0429424 0 0.0859868 0.171872 -0.0859868 0.171872 0 0.0429424 -1.67599 1.67599 -0.0429424 0.128929 0.0429424 0.0859868 0.128929 0.0429424 0.0859868 -0.0429424 0.730538 -0.730538 0.0859868 0.0429424 -0.0430443 0.257865 -0.0429424 0.214814 0 0.0429424 0.0429424 0.0859868 0.0430443 0.300801 0.0858849 0.257865 0.171974 0.257858 0.171872 0.257858 0.257865 0.171872 0.257757 0.128929 0.300903 0.0858917 0.300808 0.0430443 0.343743 -0.0430443 0.343845 -0.128936 0.0429424 -0.0429424 0.0429424 -0.0429424 0 -0.0859868 -0.0429424 -0.0429424 -0.988396 -0.988396 -0.0429424 -0.0859868 0 -0.0429424 -0.0430443 -0.214814 0.128929 -0.171974 0.0859868 -0.0429424 0.128936 -0.0429424 0.128929 0.0429424 0.128827 0.0429424 0.945454 0.988396 0.128929 0.0430443 0.0429424 0 0.0859868 -0.0859868 0.128929 -0.34375 0.0429424 -0.343845 -0.0429424 -0.257858 -0.0859868 -0.300808 -0.128929 -0.257858 -0.214814 -0.257757 -0.214916 -0.171974 -0.257763 -0.171878 -0.257858 -0.0858849 -0.300801 -0.0859868 -0.0859868 0 -0.0429424 0 -0.214923 0.0429424 -0.214814 0.0430443 -0.128929 -0.128929 0.0429424 -0.171974 -0.0429424 -0.128827 -0.0430443 -0.171974 -0.0858849 -0.128929 -0.0429424 -0.0429492 -0.214916 -0.128929 -0.214923 -0.0429424 -0.0429424 -0.214916 -0.128929 -0.214814 0 0 -0.214814 -0.128929 -0.257858 -0.0429424 0 -0.257865 -0.171872 -0.171872 0 -0.0430443 -0.171878 -0.128929 -0.257858 -0.0429424 -0.0430443 -0.214814 -0.128929 -0.214916 0 0 -0.214814 -0.128936 -0.214923 -0.0429424 -0.214814 0.0429424 -0.128929 -0.128929 0.0859868 -0.257858 0 -0.214814 0 0 0 -0.0859868 -0.0430443 -0.34375 -0.128929 -0.343845 -0.0858849 -0.0429424 -0.0859868 -0.0429424 -0.0429424 0.0429424 -0.0859868 0.0859868 0 0.128929 0.128929 0.257757 0.0430443 0.257865 0 0.0859868 0 0.214814 -0.0859868 0.257858 0 0.0859868 0.0429424 0.0429424 0.171872 0.171878 -0.644551 0.644646 -0.171872 -0.171872 -0.128929 -0.0430443 -0.0430443 0.0430443 -0.214814 0.0429424 -0.214916 0 -0.0858917 0 -0.257858 -0.0429424 -0.214916 -0.0859868 -0.386686 -0.300801 -0.257865 -0.386794 -0.0859868 -0.257858 -0.0429424 -0.214814 0.0429424 -0.171872 0.0430443 -0.214923 0.77348 0.816525 0.128929 0.0859868 0.128929 0.0858849 0.214821 0 0.257858 -0.0429424 0.171872 -0.128929 0.128929 -0.128929 0.0859868 -0.171872 0 -0.171872 -0.0429424 -0.214916 0 0 -0.0430443 -0.0859936 -0.128929 -0.128827 -0.77348 -0.816525 0.34375 -0.0429424 0.42973 0.0429424 0.386788 0.214821 0.0859868 0.0430443 0.128936 -0.0430443 0 -0.128929 -0.0430443 -0.0858917 -0.472679 -0.257858 -0.257858 -0.0859868 -0.257858 0 0 0z"/>
  </g>
 </g>
</svg>
