<?xml version="1.0" encoding="UTF-8"?>
<!DOCTYPE svg PUBLIC "-//W3C//DTD SVG 1.1//EN" "http://www.w3.org/Graphics/SVG/1.1/DTD/svg11.dtd">
<!-- Creator: CorelDRAW -->
<svg xmlns="http://www.w3.org/2000/svg" xml:space="preserve" width="237.88mm" height="237.88mm" style="shape-rendering:geometricPrecision; text-rendering:geometricPrecision; image-rendering:optimizeQuality; fill-rule:evenodd; clip-rule:evenodd"
viewBox="0 0 15.5611 15.5611"
 xmlns:xlink="http://www.w3.org/1999/xlink">
 <defs>
  <style type="text/css">
   <![CDATA[
    .fil0 {fill:#24A8C2}
    .fil1 {fill:white}
   ]]>
  </style>
 </defs>
 <g id="Layer_x0020_1">
  <metadata id="CorelCorpID_0Corel-Layer"/>
  <g id="_220963256">
   <polygon id="_220963280" class="fil0" points="2.28224,2.27626 2.86326,1.73823 3.48566,1.28302 4.14961,0.910521 4.85504,0.579479 5.56046,0.331141 6.30745,0.124166 7.01287,0.0414539 7.75976,0 8.50675,0.0414539 9.25364,0.124166 10.0006,0.331141 10.7061,0.579479 11.4115,0.910521 12.0754,1.28302 12.6978,1.73823 13.2788,2.27626 13.8183,2.85564 14.2747,3.51783 14.6897,4.18001 15.0216,4.8422 15.2706,5.54575 15.4366,6.29065 15.5196,7.03565 15.5611,7.78055 15.5196,8.52555 15.4366,9.27045 15.2706,9.974 15.0216,10.719 14.6897,11.3812 14.2747,12.0433 13.8183,12.7055 13.2788,13.2849 12.6978,13.8229 12.0754,14.2782 11.4115,14.6507 10.7061,14.9817 10.0006,15.2301 9.25364,15.4369 8.50675,15.5197 7.75976,15.5611 7.01287,15.5197 6.30745,15.4369 5.56046,15.2301 4.85504,14.9817 4.14961,14.6507 3.48566,14.2782 2.86326,13.8229 2.28224,13.2849 1.74278,12.7055 1.28635,12.0433 0.87139,11.3812 0.539464,10.719 0.290465,9.974 0.124499,9.27045 -0,8.52555 -0,7.78055 -0,7.03565 0.124499,6.29065 0.290465,5.54575 0.539464,4.8422 0.87139,4.18001 1.28635,3.51783 1.74278,2.85564 "/>
   <polygon id="_220963064" class="fil1" points="7.92583,3.14533 7.7183,3.14533 7.55233,3.14533 7.42783,3.18678 7.38636,3.18678 7.30333,3.26949 7.26186,3.3523 7.26186,5.50439 5.72652,7.44951 5.64349,7.28398 5.56046,7.20117 5.39449,7.11836 5.22853,7.07701 3.19519,7.07701 2.98776,7.11836 2.82169,7.20117 2.73877,7.3667 2.6972,7.57368 2.6972,8.07025 2.73877,8.19441 2.82169,8.23587 2.94619,8.19441 2.98776,8.07025 2.98776,7.57368 3.02923,7.44951 3.19519,7.40815 5.22853,7.40815 5.35303,7.44951 5.39449,7.57368 5.39449,11.9606 5.35303,12.0847 5.22853,12.1261 3.19519,12.1261 3.02923,12.0847 2.98776,11.9606 2.98776,8.73243 2.94619,8.64972 2.82169,8.56691 2.73877,8.64972 2.6972,8.73243 2.6972,11.9606 2.73877,12.1261 2.82169,12.2916 2.98776,12.4158 3.19519,12.4571 5.22853,12.4571 5.43596,12.4158 5.60203,12.2916 5.68496,12.1261 5.72652,11.9606 5.72652,11.5054 6.51488,11.9192 6.59791,11.9192 9.62713,11.9192 9.75163,11.8778 9.7931,11.7536 9.75163,11.6709 9.62713,11.5881 6.63938,11.5881 5.72652,11.1742 5.72652,7.94607 7.5938,5.62846 7.63526,5.54575 7.63526,3.47647 7.75976,3.43501 7.96729,3.43501 8.29922,3.47647 8.58969,3.64199 8.75574,3.80752 8.88024,4.05585 8.96318,4.34554 9.00464,4.67668 9.00464,6.37346 9.04621,6.49763 9.12914,6.53899 11.7019,6.53899 11.9095,6.58034 12.0754,6.66315 12.1584,6.82868 12.1999,7.03565 12.1584,7.24253 12.0754,7.40815 11.9095,7.49087 11.7019,7.53222 10.3326,7.53222 10.2496,7.61503 10.1666,7.69784 10.2496,7.82201 10.3326,7.86336 11.536,7.86336 11.7434,7.90472 11.9095,8.02888 11.9924,8.19441 12.034,8.35993 11.9924,8.56691 11.9095,8.73243 11.7434,8.8566 11.536,8.89796 10.3326,8.89796 10.2496,8.93941 10.1666,9.02212 10.2496,9.14629 10.3326,9.18774 11.4115,9.18774 11.619,9.2291 11.7434,9.35326 11.8264,9.51879 11.8679,9.68431 11.8264,9.89129 11.7434,10.0568 11.5774,10.181 11.37,10.2223 10.3326,10.2223 10.2496,10.2637 10.1666,10.3465 10.2496,10.4707 10.3326,10.512 11.2455,10.512 11.287,10.512 11.4529,10.5948 11.5774,10.719 11.6605,10.8432 11.7019,11.05 11.6605,11.257 11.536,11.4225 11.37,11.5054 11.204,11.5467 10.3326,11.5467 10.2496,11.5881 10.1666,11.7122 10.2496,11.8364 10.3326,11.8778 11.204,11.8778 11.536,11.795 11.785,11.6294 11.9509,11.3397 12.034,11.05 11.9509,10.6775 11.7434,10.4293 11.9509,10.3051 12.0754,10.1396 12.1584,9.93264 12.1999,9.68431 12.1169,9.35326 11.9095,9.06358 12.1169,8.98077 12.2414,8.81524 12.3244,8.60826 12.3659,8.40139 12.2829,8.07025 12.0754,7.78055 12.2414,7.65639 12.4074,7.49087 12.4904,7.28398 12.5319,7.03565 12.4489,6.70451 12.2829,6.45627 11.9924,6.29065 11.6605,6.20794 9.29521,6.20794 9.29521,4.71804 9.25364,4.26273 9.17071,3.93168 9.00464,3.60064 8.75574,3.39366 8.54822,3.26949 8.34079,3.18678 7.92583,3.14533 "/>
   <path id="_220963304" class="fil1" d="M4.60604 11.05l0.124499 0.0828163 0.0415651 0.124166 -0.0415651 0.124166 -0.124499 0.0413558 -0.124499 -0.0413558 -0.0829341 -0.124166 0.0829341 -0.124166 0.124499 -0.0828163 0 0zm0 -0.289687l-0.207433 0.0413558 -0.16596 0.0828098 -0.0830322 0.165521 -0.041467 0.206982 0.041467 0.206877 0.0830322 0.124166 0.16596 0.124166 0.207433 0.0413558 0.207531 -0.0413558 0.124499 -0.124166 0.124493 -0.124166 0.041467 -0.206877 -0.041467 -0.206982 -0.124493 -0.165521 -0.165966 -0.0828098 -0.166064 -0.0413558 0 0z"/>
  </g>
 </g>
</svg>
