<?xml version="1.0" encoding="UTF-8"?>
<!DOCTYPE svg PUBLIC "-//W3C//DTD SVG 1.1//EN" "http://www.w3.org/Graphics/SVG/1.1/DTD/svg11.dtd">
<!-- Creator: CorelDRAW -->
<svg xmlns="http://www.w3.org/2000/svg" xml:space="preserve" width="237.88mm" height="237.88mm" style="shape-rendering:geometricPrecision; text-rendering:geometricPrecision; image-rendering:optimizeQuality; fill-rule:evenodd; clip-rule:evenodd"
viewBox="0 0 15.5664 15.5664"
 xmlns:xlink="http://www.w3.org/1999/xlink">
 <defs>
  <style type="text/css">
   <![CDATA[
    .fil0 {fill:#24A8C2}
    .fil1 {fill:white}
   ]]>
  </style>
 </defs>
 <g id="Layer_x0020_1">
  <metadata id="CorelCorpID_0Corel-Layer"/>
  <g id="_220962752">
   <polygon id="_220963328" class="fil0" points="2.27702,13.2893 1.73882,12.7098 1.28345,12.0474 0.869461,11.3849 0.538201,10.7225 0.289785,9.97738 0.124208,9.2736 0.041468,8.52835 -0,7.78319 0.041468,7.03794 0.124208,6.29278 0.289785,5.54753 0.538201,4.84375 0.869461,4.13996 1.28345,3.47755 1.73882,2.8566 2.27702,2.27693 2.8566,1.73882 3.47765,1.28336 4.14006,0.869363 4.84384,0.579577 5.54763,0.331155 6.29278,0.124208 7.03804,0.0413699 7.78319,0 8.52844,0.0413699 9.27359,0.124208 9.97738,0.331155 10.6812,0.579577 11.385,0.869363 12.0474,1.28336 12.6684,1.73882 13.2894,2.27693 13.8276,2.8566 14.283,3.47755 14.6556,4.13996 14.9868,4.84375 15.2352,5.54753 15.4008,6.29278 15.525,7.03794 15.5664,7.78319 15.525,8.52835 15.4008,9.2736 15.2352,9.97738 14.9868,10.7225 14.6556,11.3849 14.283,12.0474 13.8276,12.7098 13.2894,13.2893 12.6684,13.8276 12.0474,14.2829 11.385,14.6556 10.6812,14.9868 9.97738,15.2351 9.27359,15.4008 8.52844,15.5249 7.78319,15.5664 7.03804,15.5249 6.29278,15.4008 5.54763,15.2351 4.84384,14.9868 4.14006,14.6556 3.47765,14.2829 2.8566,13.8276 "/>
   <polygon id="_220962608" class="fil1" points="5.21637,9.23213 5.13363,9.2736 5.09226,9.35634 5.13363,9.48055 5.21637,9.52201 5.38205,9.52201 5.38205,10.6812 5.46479,11.0123 5.63046,11.2607 5.87878,11.4263 6.16857,11.4678 6.21004,11.4678 6.21004,11.4678 6.29278,11.4678 6.37562,11.4263 6.5412,11.4263 6.78961,11.3849 7.07941,11.3022 7.07941,12.2129 7.12078,12.3785 7.20361,12.4614 7.28645,12.5442 7.41066,12.5856 8.4456,12.5856 8.56981,12.5442 8.61118,12.42 8.56981,12.3371 8.4456,12.2544 7.41066,12.2544 7.36919,12.2544 7.36919,12.2129 7.36919,11.1365 7.36919,11.0952 7.32782,11.0123 7.24498,11.0123 7.20361,11.0123 6.16857,11.178 5.96162,11.1365 5.79604,11.0538 5.7132,10.8882 5.67183,10.6812 5.67183,9.35634 5.63046,9.2736 5.54763,9.23213 "/>
   <polygon id="_220962776" class="fil1" points="6.49983,3.56039 6.41699,3.56039 5.83741,4.0986 5.589,4.38838 5.38205,4.761 5.21637,5.09217 5.09226,5.46479 5.00942,5.87879 4.96805,6.25141 5.00942,6.78962 4.84384,7.32772 4.67826,7.74182 4.59543,8.07298 4.51259,8.27992 4.47122,8.44561 4.42985,8.52835 4.42985,8.69392 4.47122,9.02518 4.6368,9.2736 4.761,9.31497 4.84384,9.2736 4.88521,9.14938 4.84384,9.06655 4.71963,8.81813 4.71963,8.65255 4.71963,8.52835 5.29921,6.83099 5.29921,6.74815 5.29921,6.25141 5.29921,5.92016 5.38205,5.54753 5.46479,5.21637 5.63046,4.88522 6.04446,4.26417 6.58257,3.8088 6.62404,3.72597 6.62404,3.60176 6.49983,3.56039 "/>
   <polygon id="_220962656" class="fil1" points="8.19718,3.02218 7.57624,3.06356 6.91383,3.2706 6.83098,3.35334 6.83098,3.47755 6.91383,3.56039 6.99667,3.56039 7.03804,3.56039 7.45203,3.39481 7.82466,3.35334 8.11444,3.31197 8.23865,3.31197 8.61118,3.35334 8.94244,3.39481 9.60485,3.64313 10.1844,4.01576 10.6398,4.51259 10.971,5.13354 11.1366,5.79595 11.178,6.1272 11.178,6.49973 11.1366,6.87236 11.0538,7.24498 11.0538,7.36919 11.1366,7.45193 11.178,7.45193 11.2608,7.41056 11.3022,7.32772 11.4264,6.87236 11.4678,6.37562 11.4264,5.92016 11.385,5.46479 11.2194,5.0508 11.0124,4.6368 10.8054,4.26417 10.4742,3.93301 9.97738,3.51902 9.43917,3.22913 8.81823,3.06356 "/>
   <polygon id="_220962680" class="fil1" points="10.971,7.65898 10.8882,7.65898 10.8468,7.74182 10.7226,7.94877 10.5571,8.23855 10.4328,8.65255 10.3914,9.14938 10.3914,12.2129 10.35,12.2544 10.3086,12.2544 9.02518,12.2544 8.94244,12.2958 8.90097,12.3785 8.94244,12.5027 9.02518,12.5442 10.3086,12.5442 10.4328,12.5027 10.5571,12.42 10.6398,12.3371 10.6398,12.2129 10.6398,9.14938 10.7226,8.69392 10.8054,8.36277 10.971,8.07298 11.0953,7.86593 11.0953,7.74182 11.0538,7.65898 10.971,7.65898 "/>
   <polygon id="_220963472" class="fil1" points="6.49983,7.07941 6.41699,7.07941 6.08583,7.28635 6.003,7.36919 6.04446,7.49341 6.08583,7.53477 6.16857,7.57614 6.25141,7.53477 6.58257,7.36919 6.62404,7.24498 6.62404,7.16215 6.58257,7.07941 6.49983,7.07941 "/>
   <polygon id="_220963784" class="fil1" points="9.89464,7.12078 9.77043,7.16215 9.77043,7.28635 9.8118,7.36919 10.0188,7.49341 10.1431,7.57614 10.1844,7.61761 10.2258,7.61761 10.3086,7.57614 10.35,7.49341 10.35,7.41056 10.3086,7.32772 9.93601,7.12078 9.89464,7.12078 "/>
   <path id="_220963352" class="fil1" d="M7.70044 5.92016l0.0827463 0.0413699 0.041468 0.0828379 0 0.0828379 -0.124214 0 -0.0828379 0 -0.0413699 -0.0828379 0.0413699 -0.0828379 0.0828379 -0.0413699 0 0zm1.03495 0l0.0828379 0.0413699 0.0413699 0.0828379 0 0.0828379 -0.0827398 0 -0.165682 0 0 -0.0828379 0.041468 -0.0828379 0.0827463 -0.0413699 0 0zm-0.414 0.496831l0 1.44894 -0.206948 0 0 -1.44894 0.206948 0zm0.455468 1.73882l0 0.289792 -1.11788 0 0 -0.289792 1.11788 0zm0 0.579577l0 0.124208 0 0 -0.041468 0.124208 -0.0413699 0 -0.952207 0 -0.0413699 0 -0.041468 -0.124208 0 -0.124208 1.11788 0zm-0.248422 0.538208l-0.041468 0.0827398 -0.0413699 0.0828379 -0.206948 0.0828379 -0.207046 -0.0828379 -0.124208 -0.165578 0.621039 0zm-0.289785 -4.6368l-0.331253 0.0413699 -0.331162 0.0828379 -0.248416 0.165584 -0.248416 0.165578 -0.206954 0.248416 -0.124208 0.289785 -0.124208 0.289792 0 0.331253 0 0.331155 0.124208 0.331162 0.165584 0.289884 0.206948 0.248317 0.207046 0.248422 0.0413699 0.289785 0 0.869461 0.0828379 0.248416 0.165578 0.124116 0.0413699 0.207046 0.165682 0.206948 0.165578 0.124208 0.206948 0.041468 0.248416 -0.041468 0.165578 -0.124208 0.124214 -0.165578 0.0828379 -0.248416 0.165578 -0.124116 0.0828379 -0.248416 0 -0.910831 0 -0.165578 0 -0.0828379 -0.124208 -0.0413699 0 -0.0413699 -0.0828379 0.0413699 -0.0827398 0.0828379 0 0.12411 -0.165682 0 0 -1.44894 0.124214 0 0.165578 -0.0413699 0.124208 -0.0828379 0.0828379 -0.124208 0.0413699 -0.124208 -0.0413699 -0.165578 -0.0828379 -0.124208 -0.124208 -0.0828445 -0.165578 -0.0413699 0 0 -0.165584 0.0413699 -0.124208 0.0828445 -0.0827398 0.124208 -0.041468 0.165578 0 0.0828379 -0.206948 0 0 -0.0828379 -0.041468 -0.165578 -0.0827398 -0.124208 -0.124208 -0.0828445 -0.165584 -0.0413699 -0.041468 0 -0.124208 0.0413699 -0.12411 0.0828445 -0.0828379 0.124208 -0.0413699 0.165578 0.0413699 0.124208 0.0828379 0.124208 0.12411 0.0828379 0.124208 0.0413699 0.165682 0 0 1.44894 -0.165682 0 -0.124208 -0.331155 -0.206948 -0.331162 -0.207046 -0.207046 -0.12411 -0.206948 -0.0828379 -0.28989 -0.0413764 -0.248317 0.0413764 -0.289884 0.0828379 -0.248324 0.12411 -0.207046 0.165676 -0.206948 0.165578 -0.165676 0.248416 -0.12411 0.248324 -0.0828379 0.248416 -0.0413699 0.041468 0 0.289785 0.0413699 0.206954 0.0828379 0.248416 0.12411 0.165578 0.165676 0.165578 0.206948 0.124208 0.207046 0.0828379 0.248324 0.0413699 0.248416 0 0 -0.0413699 0.289785 -0.0828379 0.248422 -0.124208 0.207046 -0.165578 0.206948 -0.0413699 0.124208 0.0413699 0.0828379 0.0828379 0.0413699 0.124208 -0.0413699 0.206948 -0.248416 0.124214 -0.248416 0.124208 -0.289792 0 -0.331155 0 -0.289884 -0.0827398 -0.331162 -0.165682 -0.248416 -0.206948 -0.289785 -0.248416 -0.165578 -0.248416 -0.165584 -0.289792 -0.0828379 -0.289785 -0.0413699 -0.0413699 0 0 0z"/>
   <polygon id="_220963544" class="fil1" points="8.19718,3.72597 8.11444,3.76734 8.07298,3.85017 8.07298,4.26417 8.11444,4.38838 8.19718,4.42975 8.32139,4.38838 8.36286,4.26417 8.36286,3.85017 8.32139,3.76734 8.19718,3.72597 "/>
   <polygon id="_220963976" class="fil1" points="7.07941,4.05723 6.99667,4.05723 6.91383,4.13996 6.9552,4.26417 7.12078,4.59533 7.24498,4.67817 7.32782,4.6368 7.36919,4.55396 7.36919,4.47122 7.16224,4.0986 7.12078,4.05723 7.07941,4.05723 "/>
   <polygon id="_220963448" class="fil1" points="6.16857,4.92659 6.08583,4.92659 6.04446,5.00943 6.04446,5.09217 6.08583,5.175 6.29278,5.29921 6.41699,5.38195 6.45846,5.38195 6.49983,5.42342 6.58257,5.38195 6.62404,5.34058 6.66541,5.21637 6.58257,5.13354 6.21004,4.92659 6.16857,4.92659 "/>
   <polygon id="_220963808" class="fil1" points="5.83741,6.08574 5.75457,6.1272 5.7132,6.20994 5.75457,6.33415 5.83741,6.37562 6.25141,6.37562 6.33425,6.33415 6.37562,6.20994 6.33425,6.1272 6.25141,6.08574 "/>
   <polygon id="_220963496" class="fil1" points="10.1431,6.1272 10.0602,6.16857 10.0188,6.25141 10.0602,6.37562 10.1431,6.41699 10.5571,6.41699 10.6812,6.37562 10.7226,6.25141 10.6812,6.16857 10.5571,6.1272 "/>
   <polygon id="_220963928" class="fil1" points="10.2672,4.96796 10.1844,4.96796 9.85317,5.175 9.77043,5.25774 9.8118,5.34058 9.85317,5.38195 9.93601,5.42342 9.97738,5.38195 10.35,5.21637 10.3914,5.13354 10.3914,5.00943 10.3086,4.96796 10.2672,4.96796 "/>
   <polygon id="_220964024" class="fil1" points="9.3978,4.05723 9.31496,4.05723 9.27359,4.13996 9.10801,4.47122 9.06664,4.59533 9.14938,4.67817 9.23222,4.71954 9.27359,4.67817 9.31496,4.6368 9.52201,4.26417 9.52201,4.18133 9.48064,4.05723 9.3978,4.05723 "/>
  </g>
 </g>
</svg>
