<?xml version="1.0" encoding="UTF-8"?>
<!DOCTYPE svg PUBLIC "-//W3C//DTD SVG 1.1//EN" "http://www.w3.org/Graphics/SVG/1.1/DTD/svg11.dtd">
<!-- Creator: CorelDRAW -->
<svg xmlns="http://www.w3.org/2000/svg" xml:space="preserve" width="237.879mm" height="237.879mm" style="shape-rendering:geometricPrecision; text-rendering:geometricPrecision; image-rendering:optimizeQuality; fill-rule:evenodd; clip-rule:evenodd"
viewBox="0 0 13.705 13.705"
 xmlns:xlink="http://www.w3.org/1999/xlink">
 <defs>
  <style type="text/css">
   <![CDATA[
    .fil0 {fill:#82C650}
    .fil1 {fill:white}
   ]]>
  </style>
 </defs>
 <g id="Layer_x0020_1">
  <metadata id="CorelCorpID_0Corel-Layer"/>
  <g id="_220953536">
   <polygon id="_220957280" class="fil0" points="11.7002,11.7002 12.1741,11.1535 12.575,10.6068 12.9395,10.0236 13.2311,9.40393 13.4498,8.78431 13.5956,8.16468 13.6686,7.50854 13.705,6.85249 13.6686,6.19636 13.5956,5.5403 13.4498,4.88417 13.2311,4.26454 12.9395,3.64491 12.575,3.06171 12.1741,2.51502 11.7002,2.00466 11.19,1.5309 10.6432,1.12989 10.0601,0.765404 9.44036,0.473846 8.82073,0.255135 8.16468,0.109356 7.50855,0.0364231 6.85249,0 6.19636,0.0364231 5.54031,0.109356 4.92068,0.255135 4.30105,0.473846 3.68134,0.765404 3.09822,1.12989 2.55144,1.5309 2.00475,2.00466 1.56732,2.51502 1.1299,3.06171 0.80192,3.64491 0.510275,4.26454 0.291558,4.88417 0.145779,5.5403 0.0364231,6.19636 -0,6.85249 0.0364231,7.50854 0.145779,8.16468 0.291558,8.78431 0.510275,9.40393 0.80192,10.0236 1.1299,10.6068 1.56732,11.1535 2.00475,11.7002 2.55144,12.1741 3.09822,12.575 3.68134,12.9031 4.30105,13.1947 4.92068,13.4133 5.54031,13.5592 6.19636,13.6685 6.85249,13.705 7.50855,13.6685 8.16468,13.5592 8.82073,13.4133 9.44036,13.1947 10.0601,12.9031 10.6432,12.575 11.19,12.1741 "/>
   <polygon id="_220958528" class="fil1" points="5.68609,2.77015 5.54031,2.77015 5.39453,2.843 5.3216,2.95235 5.24875,3.09822 5.1394,3.75427 4.92068,3.8272 4.73839,3.90005 4.1917,3.53556 4.08234,3.49913 3.97298,3.46271 3.7907,3.49913 3.64492,3.60849 3.35336,3.86362 3.28043,4.00941 3.244,4.15519 3.244,4.30105 3.31685,4.41041 3.68134,4.9571 3.53556,5.35801 2.87951,5.46737 2.73373,5.5403 2.62437,5.61324 2.55144,5.75901 2.55144,5.90479 2.55144,6.30571 2.55144,6.45149 2.62437,6.56085 2.73373,6.6702 2.87951,6.70671 3.53556,6.81607 3.68134,7.21698 3.31685,7.76368 3.244,7.90954 3.244,8.05532 3.28043,8.2011 3.35336,8.31046 3.64492,8.60202 3.7907,8.67495 3.97298,8.71137 4.08234,8.71137 4.1917,8.63853 4.73839,8.27403 4.92068,8.38339 5.1394,8.45624 5.24875,9.07586 5.3216,9.22173 5.39453,9.331 5.54031,9.40393 5.68609,9.44036 6.087,9.44036 6.19636,9.40393 6.34222,9.331 6.41507,9.22173 6.488,9.07586 6.59736,8.45624 6.92534,8.31046 6.99827,8.27403 6.99827,8.16468 6.92534,8.09174 6.85249,8.09174 6.81607,8.09174 6.45158,8.2011 6.37865,8.23752 6.34222,8.31046 6.19636,9.03944 6.15993,9.1488 6.05058,9.18522 5.64966,9.18522 5.57673,9.1488 5.50389,9.03944 5.35802,8.31046 5.3216,8.23752 5.24875,8.2011 5.03004,8.12817 4.7749,8.0189 4.70197,7.98239 4.62903,8.0189 4.04592,8.41982 3.93656,8.45624 3.82721,8.38339 3.53556,8.12817 3.49914,8.0189 3.53556,7.90954 3.93656,7.32634 3.97298,7.25341 3.93656,7.18056 3.82721,6.92534 3.71785,6.6702 3.68134,6.63378 3.64492,6.59736 2.91594,6.45149 2.80658,6.37865 2.77016,6.30571 2.77016,5.90479 2.80658,5.79544 2.91594,5.75901 3.64492,5.61324 3.68134,5.57673 3.71785,5.50388 3.82721,5.24866 3.93656,5.03003 3.93656,4.88417 3.53556,4.26454 3.49914,4.15519 3.53556,4.08234 3.82721,3.79069 3.93656,3.75427 4.04592,3.75427 4.62903,4.1917 4.70197,4.1917 4.7749,4.1917 5.03004,4.04583 5.24875,3.97298 5.3216,3.93656 5.35802,3.86362 5.50389,3.13464 5.57673,3.06171 5.64966,3.02529 6.05058,3.02529 6.15993,3.06171 6.19636,3.13464 6.34222,3.86362 6.37865,3.93656 6.45158,3.97298 6.70671,4.04583 6.92534,4.1917 6.99827,4.1917 7.0712,4.1917 7.69083,3.75427 7.76368,3.75427 7.87304,3.79069 8.16468,4.08234 8.2011,4.15519 8.2011,4.26454 7.80019,4.88417 7.76368,4.9571 7.80019,5.03003 7.90955,5.24866 7.98239,5.50388 8.0189,5.57673 8.09175,5.61324 8.82073,5.75901 8.89366,5.79544 8.93009,5.90479 8.93009,6.30571 8.89366,6.37865 8.82073,6.45149 8.09175,6.59736 8.0189,6.63378 7.98239,6.6702 7.83661,7.03469 7.83661,7.14405 7.90955,7.21698 7.98239,7.25341 8.05533,7.21698 8.09175,7.14405 8.2011,6.81607 8.85724,6.70671 9.00302,6.6702 9.11237,6.56085 9.18522,6.45149 9.22173,6.30571 9.22173,5.90479 9.18522,5.75901 9.11237,5.61324 9.00302,5.5403 8.85724,5.46737 8.2011,5.35801 8.05533,4.9571 8.41982,4.41041 8.49266,4.30105 8.49266,4.15519 8.45624,4.00941 8.38339,3.86362 8.09175,3.60849 7.94597,3.49913 7.76368,3.46271 7.65441,3.49913 7.54506,3.53556 6.99827,3.90005 6.81607,3.8272 6.59736,3.75427 6.488,3.09822 6.41507,2.95235 6.34222,2.843 6.19636,2.77015 6.087,2.77015 "/>
   <polygon id="_220955432" class="fil1" points="5.86838,4.59261 5.57673,4.59261 5.28517,4.70197 5.03004,4.84774 4.7749,5.03003 4.73839,5.10288 4.7749,5.21224 4.88417,5.24866 4.99353,5.21224 5.17582,5.06646 5.39453,4.9571 5.61324,4.88417 5.86838,4.84774 6.12351,4.88417 6.37865,4.9571 6.59736,5.06646 6.77956,5.21224 6.92534,5.39452 7.0712,5.61324 7.14406,5.86837 7.14406,6.12351 7.10763,6.41507 7.03469,6.70671 6.99827,6.81607 7.0712,6.88892 7.14406,6.92534 7.18056,6.88892 7.25341,6.81607 7.36277,6.488 7.4357,6.12351 7.39919,5.79544 7.28983,5.50388 7.14406,5.24866 6.96185,5.03003 6.74314,4.84774 6.488,4.70197 6.19636,4.59261 "/>
   <polygon id="_220957568" class="fil1" points="4.51968,5.5403 4.44683,5.5403 4.41041,5.61324 4.33748,5.86837 4.33748,6.087 4.33748,6.41507 4.44683,6.70671 4.59261,6.96185 4.7749,7.18056 4.99353,7.36276 5.28517,7.50854 5.57673,7.6179 5.86838,7.65432 6.12351,7.6179 6.34222,7.58147 6.77956,7.36276 6.85249,7.25341 6.81607,7.14405 6.70671,7.10763 6.63378,7.10763 6.26929,7.28983 5.9048,7.36276 5.61324,7.32634 5.39453,7.25341 5.17582,7.14405 4.99353,6.99827 4.81132,6.81607 4.70197,6.59736 4.62903,6.34222 4.59261,6.087 4.62903,5.90479 4.66554,5.68608 4.66554,5.61324 4.55619,5.5403 "/>
   <polygon id="_223278216" class="fil1" points="8.85724,6.99827 8.74788,6.99827 8.63853,7.0712 8.5656,7.14405 8.52917,7.25341 8.45624,7.65432 8.27404,7.72725 7.90955,7.50854 7.76368,7.43569 7.6179,7.47212 7.50855,7.54505 7.32634,7.72725 7.25341,7.83661 7.21699,7.94596 7.28983,8.12817 7.50855,8.49266 7.39919,8.78431 7.39919,8.89366 7.47212,8.93009 7.50855,8.96651 7.6179,8.93009 7.65441,8.85715 7.76368,8.52917 7.80019,8.45624 7.76368,8.38339 7.50855,7.98239 7.50855,7.94596 7.50855,7.94596 7.69083,7.72725 7.72726,7.72725 7.76368,7.72725 8.16468,8.0189 8.23753,8.0189 8.31046,8.0189 8.45624,7.94596 8.63853,7.87303 8.67495,7.83661 8.71137,7.76368 8.82073,7.28983 8.82073,7.25341 8.85724,7.25341 9.1488,7.25341 9.18522,7.28983 9.29458,7.76368 9.331,7.83661 9.40394,7.87303 9.6955,8.0189 9.76843,8.0189 9.84136,8.0189 10.2423,7.72725 10.2787,7.72725 10.3152,7.72725 10.4974,7.94596 10.5338,7.94596 10.4974,7.98239 10.2423,8.38339 10.2059,8.45624 10.2423,8.52917 10.3152,8.71137 10.3516,8.85715 10.3881,8.93009 10.461,8.96651 10.9348,9.03944 10.9713,9.07586 10.9713,9.11237 10.9713,9.36751 10.9713,9.40393 10.9348,9.40393 10.461,9.51329 10.3881,9.54971 10.3516,9.62264 10.3152,9.76842 10.2423,9.9142 10.2423,10.06 10.4974,10.4974 10.5338,10.4974 10.4974,10.5338 10.3152,10.7161 10.2787,10.7525 10.2423,10.7525 9.84136,10.461 9.76843,10.461 9.6955,10.461 9.54972,10.5338 9.40394,10.6068 9.331,10.6432 9.29458,10.6797 9.18522,11.19 9.1488,11.2264 8.85724,11.2264 8.85724,11.19 8.82073,11.19 8.71137,10.6797 8.71137,10.6432 8.63853,10.6068 8.49266,10.5338 8.31046,10.461 8.23753,10.461 8.16468,10.461 7.76368,10.7525 7.72726,10.7525 7.69083,10.7161 7.50855,10.5338 7.50855,10.4974 7.50855,10.4974 7.76368,10.06 7.80019,9.98713 7.76368,9.9142 7.69083,9.76842 7.65441,9.62264 7.6179,9.54971 7.54506,9.51329 7.0712,9.40393 7.03469,9.36751 7.03469,9.11237 7.0712,9.03944 7.10763,9.03944 7.21699,8.96651 7.21699,8.85715 7.18056,8.78431 7.0712,8.78431 7.0712,8.78431 7.03469,8.78431 6.92534,8.82073 6.85249,8.89366 6.77956,9.00302 6.77956,9.11237 6.77956,9.36751 6.77956,9.47686 6.85249,9.58622 6.92534,9.65907 7.03469,9.69549 7.39919,9.76842 7.47212,9.87778 7.50855,9.95071 7.28983,10.3152 7.21699,10.4246 7.21699,10.5338 7.25341,10.6432 7.32634,10.7161 7.50855,10.8983 7.6179,10.9713 7.76368,11.0077 7.90955,10.9348 8.27404,10.7161 8.45624,10.8255 8.52917,11.2264 8.5656,11.2993 8.67495,11.4087 8.74788,11.4451 8.85724,11.4815 9.11237,11.4815 9.22173,11.4451 9.331,11.4087 9.40394,11.2993 9.44036,11.2264 9.51329,10.8255 9.62265,10.7525 9.73201,10.7161 10.0601,10.9348 10.2423,11.0077 10.3516,10.9713 10.461,10.8983 10.6432,10.7161 10.7161,10.6068 10.7525,10.5338 10.7161,10.4246 10.6797,10.3152 10.461,9.95071 10.5338,9.76842 10.9348,9.69549 11.0442,9.62264 11.117,9.54971 11.19,9.47686 11.2264,9.36751 11.2264,9.11237 11.19,8.96651 11.1535,8.89366 10.9348,8.74788 10.5703,8.67495 10.4974,8.5656 10.461,8.49266 10.6797,8.12817 10.7525,8.0189 10.7525,7.90954 10.7161,7.80018 10.6432,7.72725 10.461,7.54505 10.3516,7.47212 10.2423,7.43569 10.0601,7.50854 9.73201,7.72725 9.51329,7.65432 9.44036,7.25341 9.40394,7.14405 9.331,7.0712 9.22173,6.99827 9.11237,6.99827 "/>
   <polygon id="_223279440" class="fil1" points="8.96651,8.45624 8.63853,8.49266 8.41982,8.67495 8.23753,8.89366 8.2011,9.22173 8.23753,9.51329 8.41982,9.732 8.63853,9.9142 8.96651,9.98713 9.18522,9.9142 9.40394,9.80485 9.44036,9.732 9.44036,9.62264 9.331,9.54971 9.22173,9.58622 9.11237,9.65907 8.93009,9.69549 8.74788,9.65907 8.60202,9.54971 8.49266,9.40393 8.45624,9.22173 8.49266,9.03944 8.60202,8.85715 8.78431,8.74788 8.96651,8.71137 9.1488,8.74788 9.29458,8.85715 9.40394,9.00302 9.44036,9.22173 9.47687,9.29458 9.58623,9.331 9.65907,9.29458 9.73201,9.22173 9.65907,8.89366 9.47687,8.67495 9.25815,8.49266 "/>
   <path id="_40665208" class="fil1" d="M5.83187 5.5403l0.218712 0.0364231 0.182289 0.145779 0.145779 0.182289 0.0364231 0.218712 -0.0364231 0.218717 -0.145779 0.145779 -0.182289 0.145779 -0.218712 0.0364231 -0.218625 -0.0364231 -0.145865 -0.145779 -0.145779 -0.145779 -0.0364231 -0.218717 0.0364231 -0.218712 0.145779 -0.182289 0.182289 -0.145779 0.182202 -0.0364231 0 0zm0 -0.255135l-0.291558 0.0364231 -0.291558 0.182289 -0.182289 0.291558 -0.0364231 0.328067 0.0364231 0.327987 0.182289 0.255221 0.291558 0.182202 0.291558 0.0729327 0.328067 -0.0729327 0.291644 -0.182202 0.182202 -0.291644 0.0729327 -0.291564 -0.0729327 -0.328067 -0.182202 -0.291558 -0.291644 -0.182289 -0.328067 -0.0364231 0 0z"/>
  </g>
 </g>
</svg>
