<?xml version="1.0" encoding="UTF-8"?>
<!DOCTYPE svg PUBLIC "-//W3C//DTD SVG 1.1//EN" "http://www.w3.org/Graphics/SVG/1.1/DTD/svg11.dtd">
<!-- Creator: CorelDRAW -->
<svg xmlns="http://www.w3.org/2000/svg" xml:space="preserve" width="96.8466mm" height="97.1504mm" style="shape-rendering:geometricPrecision; text-rendering:geometricPrecision; image-rendering:optimizeQuality; fill-rule:evenodd; clip-rule:evenodd"
viewBox="0 0 1.30669 1.31079"
 xmlns:xlink="http://www.w3.org/1999/xlink">
 <defs>
  <style type="text/css">
   <![CDATA[
    .str0 {stroke:#A2D9EE;stroke-width:0.00102812}
    .fil0 {fill:#82C650}
   ]]>
  </style>
 </defs>
 <g id="Layer_x0020_1">
  <metadata id="CorelCorpID_0Corel-Layer"/>
  <g id="_440632128">
   <polygon id="_440635272" class="fil0 str0" points="0.796152,0.000527553 0.775754,0.00460496 0.763512,0.0127706 0.755347,0.0250122 0.751269,0.0413326 0.751269,0.139261 0.739028,0.127019 0.726785,0.114776 0.710466,0.114776 0.694145,0.114776 0.681904,0.127019 0.669662,0.139261 0.669662,0.15558 0.669662,0.1719 0.681904,0.188219 0.763512,0.273905 0.779832,0.28206 0.796152,0.286148 0.812471,0.28206 0.828791,0.273905 0.914478,0.188219 0.922642,0.1719 0.926719,0.15558 0.922642,0.139261 0.914478,0.127019 0.898157,0.114776 0.881837,0.114776 0.865518,0.114776 0.849197,0.127019 0.836956,0.139261 0.836956,0.0413326 0.832878,0.0250122 0.824714,0.0127706 0.812471,0.00460496 0.796152,0.000527553 "/>
   <path id="_440635560" class="fil0 str0" d="M0.543181 0.539119l0.0163191 0.00407741 0.012243 0.00816426 0.00815481 0.0163204 0.00408685 0.0163191 0 0.171372 -0.00408685 0.0163191 -0.00815481 0.0163204 -0.0163204 0.00815481 -0.0122417 0.00408685 -0.0163204 -0.00408685 -0.0163191 -0.00815481 -0.00816561 -0.0163204 -0.00407741 -0.0163191 0 -0.171372 0.00407741 -0.0163191 0.00816561 -0.0163204 0.0163191 -0.00816426 0.0163204 -0.00407741 0 0zm0.252971 0l0.0163191 0.00407741 0.012243 0.00816426 0.00816426 0.0163204 0.00407741 0.0163191 0 0.171372 -0.00407741 0.0163191 -0.00816426 0.0163204 -0.012243 0.00815481 -0.0163191 0.00408685 -0.0163204 -0.00408685 -0.0163191 -0.00815481 -0.00816561 -0.0163204 0 -0.0163191 0 -0.171372 0 -0.0163191 0.012243 -0.0163204 0.0122417 -0.00816426 0.0163204 -0.00407741 0 0zm0.261135 0l0.0163204 0.00407741 0.0122417 0.00816426 0.00815481 0.0163204 0 0.0163191 0 0.171372 -0.00407741 0.0163191 -0.00815481 0.0163204 -0.0122417 0.00815481 -0.012243 0.00408685 -0.0204073 -0.00408685 -0.0122322 -0.00815481 -0.0122417 -0.0163204 -0.00407741 -0.0163191 0 -0.171372 0.00407741 -0.0163191 0.0122417 -0.0163204 0.0122322 -0.00816426 0.0204073 -0.00407741 0 0zm-0.518183 0.595705l0.0163191 0.00408685 0.0122322 0.0122417 0.00816561 0.0122336 0 0.0163285 0 0.0163204 -0.00816561 0.0122417 -0.0163191 0.0122322 -0.0122322 0.0040882 -0.0163299 -0.0040882 -0.0122322 -0.0122322 -0.012243 -0.0122417 -0.00408685 -0.0163204 0.00408685 -0.0163285 0.012243 -0.0122336 0.0122322 -0.0122417 0.0163299 -0.00408685 0 0zm0.485543 0l0.0163204 0.00408685 0.0122417 0.0122417 0.00815481 0.0122336 0 0.0163285 -0.00407741 0.0163204 -0.00816426 0.0122417 -0.012243 0.0122322 -0.0122322 0.0040882 -0.0163191 -0.0040882 -0.0163299 -0.0122322 -0.00815481 -0.0122417 -0.00407741 -0.0163204 0.00407741 -0.0163285 0.00815481 -0.0122336 0.0163299 -0.0122417 0.0163191 -0.00408685 0 0zm-0.979252 -0.962924l-0.0204073 0 -0.0122322 0.0122417 -0.012243 0.0122336 0 0.0122417 0.00407741 0.0163204 0.0163204 0.0163285 0.0163191 0.00815481 0.0163204 0.00407741 0.163216 0 0.00407741 0.012243 0.00407741 0.0244847 0.00407876 0.0326395 0.00816426 0.0408037 0.00815481 0.0448811 0.0122417 0.0530468 0.0204073 0.114239 0.0203978 0.11017 0.0122417 0.0530373 0.00815481 0.0448919 0.00816561 0.0407943 0.00816426 0.0326489 0.00407741 0.0244752 0 0.0122417 -0.0285621 0.0163204 -0.0244847 0.0285607 -0.0163191 0.0326395 -0.00407741 0.0326503 0.00407741 0.0285621 0.00407741 0.0203965 0.0122417 0.0244847 0.0163204 0.0163191 0.0204073 0.0163204 0.0203965 0.0122417 0.0244847 0.00815616 0.0244752 0.00407741 0.0204059 0 -0.00407741 0.0204059 -0.00408685 0.0244847 0.00408685 0.0244752 0.00815616 0.0244847 0.00816426 0.0203965 0.0163191 0.0204073 0.0203978 0.0163204 0.0204073 0.0122417 0.0244739 0.00815481 0.0244847 0.00407741 0.0244847 -0.00407741 0.0244752 -0.00815481 0.0204073 -0.0122417 0.0203965 -0.0163204 0.012243 -0.0163191 0.0122417 -0.0244847 0.00815481 -0.0244847 0.00408685 -0.0244752 -0.00408685 -0.0244847 -0.00407741 -0.0204059 0.244816 0 -0.00816426 0.0204059 -0.00407876 0.0244847 0.00407876 0.0244752 0.00816426 0.0244847 0.0122417 0.0203965 0.0163204 0.0204073 0.0163191 0.0163204 0.0244752 0.0122417 0.0204073 0.00815481 0.0244847 0.00407741 0.0285513 -0.00407741 0.0204073 -0.00815481 0.0244847 -0.0122417 0.0163191 -0.0163204 0.0163204 -0.0163191 0.0122417 -0.0244847 0.00815616 -0.0244847 0.00407741 -0.0244752 -0.00407741 -0.0244847 -0.00815616 -0.0204059 0.065279 0 0.0203978 0 0.0122417 -0.0122336 0.00816561 -0.0122417 0.00407741 -0.0122417 -0.00407741 -0.0203978 -0.00816561 -0.0122417 -0.0122417 -0.00816561 -0.0203978 -0.00407741 -0.80788 0 -0.0163204 -0.00407741 -0.0122417 -0.00816426 -0.012243 -0.012243 -0.00407741 -0.0163191 0.00407741 -0.0163204 0.012243 -0.0163191 0.0122417 -0.00816561 0.0163204 -0.00407741 0.799725 0 0.0122322 -0.00407741 0.012243 -0.00816426 0.0122417 -0.00815481 0 -0.0163204 0.0856862 -0.514115 0 -0.0163204 -0.00816426 -0.0163191 -0.012243 -0.012243 -0.0203965 -0.00407741 -0.950691 0 -0.0326395 -0.163207 -0.00407741 -0.0122417 -0.00816426 -0.012243 -0.012243 -0.00815481 -0.0163191 0 -0.195846 0z"/>
  </g>
 </g>
</svg>
