<?xml version="1.0" encoding="UTF-8"?>
<!DOCTYPE svg PUBLIC "-//W3C//DTD SVG 1.1//EN" "http://www.w3.org/Graphics/SVG/1.1/DTD/svg11.dtd">
<!-- Creator: CorelDRAW -->
<svg xmlns="http://www.w3.org/2000/svg" xml:space="preserve" width="90.2489mm" height="90.2491mm" style="shape-rendering:geometricPrecision; text-rendering:geometricPrecision; image-rendering:optimizeQuality; fill-rule:evenodd; clip-rule:evenodd"
viewBox="0 0 1.28549 1.28549"
 xmlns:xlink="http://www.w3.org/1999/xlink">
 <defs>
  <style type="text/css">
   <![CDATA[
    .fil0 {fill:#82C650}
   ]]>
  </style>
 </defs>
 <g id="Layer_x0020_1">
  <metadata id="CorelCorpID_0Corel-Layer"/>
  <g id="_440628648">
   <polygon id="_440635368" class="fil0" points="0.315957,0.64924 0.315957,0.64924 0.315957,0.64924 0.315957,0.64924 0.315957,0.64924 0.255371,0.766107 0.251036,0.787744 0.264022,0.809381 0.476109,1.02147 0.489095,1.03013 0.502071,1.03445 0.519393,1.03013 0.636251,0.969533 0.636251,0.969533 0.640577,0.969533 0.315957,0.64924 "/>
   <polygon id="_440635080" class="fil0" points="1.19027,1.42438e-006 1.08639,0.00433724 0.991168,0.0129875 0.991168,0.0562716 0.995494,0.103881 1.00848,0.151491 1.03012,0.190451 1.06042,0.225075 1.09505,0.255373 1.134,0.277011 1.17728,0.289997 1.22489,0.294323 1.26818,0.298647 1.28116,0.173129 1.28549,0.108207 1.28549,0.0346238 1.28116,0.0216477 1.2725,0.00866166 1.26384,0.00433724 1.24653,1.42438e-006 1.19027,1.42438e-006 "/>
   <polygon id="_440634984" class="fil0" points="0.822366,0.350593 0.787742,0.354919 0.757444,0.367905 0.735796,0.389542 0.718485,0.41984 0.709834,0.450138 0.709834,0.484762 0.72282,0.51506 0.740132,0.541032 0.779081,0.567006 0.822366,0.575656 0.86565,0.567006 0.904598,0.541032 0.92191,0.51506 0.934898,0.484762 0.934898,0.450138 0.926246,0.41984 0.908934,0.389542 0.887288,0.367905 0.856988,0.354919 0.822366,0.350593 "/>
   <path id="_440635488" class="fil0" d="M0.822366 0.277011l0.0346224 0.00432442 0.0389597 0.00866166 0.030298 0.0173119 0.030298 0.0259722 0.0216378 0.0259622 0.0173119 0.0346338 0.0129861 0.0346238 0 0.0346238 0 0.0389597 -0.0129861 0.0346238 -0.0173119 0.030298 -0.0216378 0.030298 -0.030298 0.0216378 -0.030298 0.0173105 -0.0389597 0.0129875 -0.0346224 0.00432442 -0.0346238 -0.00432442 -0.0389597 -0.0129875 -0.0476099 -0.0259622 -0.0346238 -0.0432841 -0.0216363 -0.0476099 -0.00866166 -0.0562716 0.00866166 -0.0519358 0.0216363 -0.0519457 0.0346238 -0.0389483 0.0476099 -0.030298 0.0389597 -0.00866166 0.0346238 -0.00432442 0 0zm-0.212087 0.363567l0.0129861 0 0.0129861 0.00866166 0.00866166 0.0129861 0.00432442 0.0129861 -0.00432442 0.0173119 -0.00866166 0.00865026 -0.0129861 0.00866166 -0.0129861 0.00432584 -0.0129761 -0.00432584 -0.0129875 -0.00432584 -0.00866023 -0.0129861 -0.00432584 -0.0173119 0.00432584 -0.0129861 0.00866023 -0.0129861 0.0129875 -0.00866166 0.0129761 0 0 0zm0.302981 -0.605954l-0.0952198 0.0302994 -0.0822437 0.0389582 -0.0779079 0.0519358 -0.0692477 0.0649218 -0.0649218 0.0779079 -0.060596 0.0865696 -0.0562716 0.0952198 -0.0519358 0.0995556 0.354919 0.354907 0.0952198 -0.0519358 0.0952198 -0.0562701 0.0865696 -0.060586 0.0779079 -0.0649332 0.0649218 -0.0735721 0.0519343 -0.0779079 0.0432855 -0.0822437 0.030298 -0.0952198 -0.030298 0 -0.0649218 -0.00432584 -0.0562716 -0.0216378 -0.0519358 -0.0259722 -0.0476099 -0.0389597 -0.0389582 -0.0476099 -0.0259636 -0.0519358 -0.0216463 -0.0562701 -0.00432584 -0.0649218 0 -0.0259736 0 0z"/>
   <polygon id="_440635248" class="fil0" points="0.908934,0.908937 0.908934,0.908937 0.761769,0.991171 0.618939,1.06475 0.618939,1.09938 0.623265,1.134 0.623265,1.15565 0.623265,1.16862 0.627589,1.18161 0.636251,1.1946 0.649237,1.20326 0.662223,1.20758 0.679535,1.20326 0.688187,1.1946 0.714159,1.18161 0.744457,1.1643 0.783416,1.134 0.822366,1.09505 0.856988,1.04311 0.887288,0.982509 0.908934,0.908937 "/>
   <polygon id="_440635320" class="fil0" points="0.380889,0.376555 0.380889,0.376555 0.302981,0.393877 0.242384,0.424176 0.190438,0.458799 0.15149,0.497748 0.121192,0.536708 0.0995542,0.567006 0.0865681,0.592968 0.0822323,0.60163 0.0779065,0.618942 0.0822323,0.636252 0.0952184,0.64924 0.10388,0.653564 0.116866,0.653564 0.125516,0.653564 0.225072,0.666552 0.298646,0.519396 0.380889,0.376555 "/>
   <polygon id="_440635344" class="fil0" points="0.190438,0.835354 0.16014,0.865652 0.134178,0.913261 0.10388,0.965197 0.0779065,1.02579 0.0562701,1.08206 0.0346224,1.14266 0.0173105,1.1946 0.00432442,1.23356 -1.42438e-006,1.25519 0.0129847,1.2725 0.0259722,1.28117 0.0389582,1.28549 0.0476085,1.28117 0.090894,1.26818 0.142828,1.25087 0.203426,1.22922 0.264022,1.20758 0.324618,1.18161 0.376553,1.15131 0.424163,1.12535 0.458797,1.09938 0.424163,1.07774 0.346255,0.995495 0.320293,1.02147 0.307306,1.03013 0.289994,1.03445 0.277008,1.03013 0.264022,1.02147 0.255371,1.01281 0.255371,0.995495 0.255371,0.982509 0.264022,0.969533 0.289994,0.943561 0.212086,0.865652 0.190438,0.835354 "/>
  </g>
 </g>
</svg>
