<?xml version="1.0" encoding="UTF-8"?>
<!DOCTYPE svg PUBLIC "-//W3C//DTD SVG 1.1//EN" "http://www.w3.org/Graphics/SVG/1.1/DTD/svg11.dtd">
<!-- Creator: CorelDRAW -->
<svg xmlns="http://www.w3.org/2000/svg" xml:space="preserve" width="96.8535mm" height="96.8535mm" style="shape-rendering:geometricPrecision; text-rendering:geometricPrecision; image-rendering:optimizeQuality; fill-rule:evenodd; clip-rule:evenodd"
viewBox="0 0 1.60746 1.60746"
 xmlns:xlink="http://www.w3.org/1999/xlink">
 <defs>
  <style type="text/css">
   <![CDATA[
    .fil0 {fill:#82C650}
   ]]>
  </style>
 </defs>
 <g id="Layer_x0020_1">
  <metadata id="CorelCorpID_0Corel-Layer"/>
  <g id="_220837696">
   <polygon id="_440635152" class="fil0" points="1.17988,0.292263 1.13659,0.303081 1.10411,0.319319 1.07165,0.346388 1.03917,0.373445 1.01752,0.405923 1.00128,0.438388 0.990452,0.481697 0.990452,0.519583 0.990452,0.849735 1.03376,0.849735 1.05541,0.855143 1.07165,0.865961 1.08246,0.876791 1.08246,0.898438 1.08246,1.27188 1.08787,1.28812 1.0987,1.30436 1.10952,1.31519 1.13118,1.3206 1.14741,1.31519 1.16365,1.30436 1.17448,1.28812 1.17988,1.27188 1.17988,0.292263 "/>
   <polygon id="_440634864" class="fil0" points="0.427572,0.568288 0.427572,0.611584 0.427572,0.633231 0.438401,0.644062 0.454641,0.654891 0.470879,0.6603 0.492528,0.665709 0.503344,0.676539 0.514175,0.687356 0.519584,0.709005 0.519584,1.27188 0.524993,1.28812 0.535823,1.30436 0.546654,1.31519 0.568301,1.3206 0.584528,1.31519 0.600766,1.30436 0.611597,1.28812 0.611597,1.27188 0.611597,0.709005 0.617006,0.687356 0.627835,0.676539 0.644075,0.665709 0.6603,0.6603 0.67654,0.654891 0.692779,0.644062 0.70361,0.633231 0.709019,0.611584 0.709019,0.568288 "/>
   <path id="_440636304" class="fil0" d="M0.752313 0.189433l0.0216489 0.0054089 0.0162383 0.0108178 0.0108294 0.0108294 0 0.0216489 0 0.281445 0 0.092001 -0.00542051 0.0433077 -0.0216472 0.0378872 -0.0270578 0.032465 -0.0378855 0.0216472 0 0.524993 -0.0054089 0.0270694 -0.00542217 0.0270561 -0.032465 0.0487182 -0.0433093 0.0270561 -0.0270561 0.0108311 -0.0270561 0 -0.0324783 0 -0.0270561 -0.0108311 -0.0433077 -0.0270561 -0.0270578 -0.0487182 -0.0108294 -0.0270561 0 -0.0270694 0 -0.524993 -0.0432961 -0.0216472 -0.0270561 -0.032465 -0.0216472 -0.0378872 -0.00542217 -0.0433077 0 -0.373446 0.00542217 -0.0216489 0.0108161 -0.0108294 0.0108311 -0.0108178 0.0216472 -0.0054089 0.01624 0.0054089 0.0162383 0.0108178 0.0108178 0.0108294 0.0054089 0.0216489 0 0.232729 0.0920127 0 0 -0.232729 0.0054089 -0.0216489 0.0108294 -0.0108294 0.0108311 -0.0108178 0.0216472 -0.0054089 0.0162267 0.0054089 0.0162383 0.0108178 0.0108311 0.0108294 0 0.0216489 0 0.232729 0.0974216 0 0 -0.232729 0 -0.0216489 0.0108161 -0.0108294 0.01624 -0.0108178 0.0162383 -0.0054089 0 0zm0.470868 0l0.0216472 0.0054089 0.01624 0.0108178 0.0108294 0.0108294 0 0.0216489 0 1.03375 0 0.0270694 -0.0108294 0.0270561 -0.0270578 0.0487182 -0.0487166 0.0270561 -0.0270561 0.0108311 -0.0270561 0 -0.0270694 0 -0.0270561 -0.0108311 -0.0432961 -0.0270561 -0.0324783 -0.0487182 -0.0108294 -0.0270561 0 -0.0270694 0 -0.33015 -0.048705 0 -0.0162383 0 -0.01624 -0.0108178 -0.0108178 -0.0162383 0 -0.01624 0 -0.378855 0.0054089 -0.0649549 0.01624 -0.0649433 0.032465 -0.0541255 0.0378872 -0.048705 0.0487166 -0.0433077 0.0595344 -0.0270578 0.0595344 -0.0216472 0.0649433 -0.0054089 0 0zm-1.08245 -0.189434l-0.0324783 0 -0.0216472 0.0108178 -0.0487182 0.0270694 -0.0270561 0.048705 -0.0108294 0.0270694 0 0.0270561 0 1.32601 0 0.0270694 0.0108294 0.0270561 0.0270561 0.0432961 0.0487182 0.0324783 0.0216472 0.0054089 0.0324783 0.00542051 1.32601 0 0.0270561 -0.00542051 0.0270694 -0.0054089 0.0432961 -0.0324783 0.0324783 -0.0432961 0.0054089 -0.0270561 0.00540724 -0.0270694 0 -1.32601 -0.00540724 -0.0270561 -0.0054089 -0.0270694 -0.0324783 -0.048705 -0.0432961 -0.0270694 -0.0270694 -0.0108178 -0.0270561 0 -1.32601 0z"/>
  </g>
 </g>
</svg>
