<?xml version="1.0" encoding="UTF-8"?>
<!DOCTYPE svg PUBLIC "-//W3C//DTD SVG 1.1//EN" "http://www.w3.org/Graphics/SVG/1.1/DTD/svg11.dtd">
<!-- Creator: CorelDRAW -->
<svg xmlns="http://www.w3.org/2000/svg" xml:space="preserve" width="96.5803mm" height="96.8438mm" style="shape-rendering:geometricPrecision; text-rendering:geometricPrecision; image-rendering:optimizeQuality; fill-rule:evenodd; clip-rule:evenodd"
viewBox="0 0 1.51872 1.52287"
 xmlns:xlink="http://www.w3.org/1999/xlink">
 <defs>
  <style type="text/css">
   <![CDATA[
    .fil0 {fill:#82C650}
   ]]>
  </style>
 </defs>
 <g id="Layer_x0020_1">
  <metadata id="CorelCorpID_0Corel-Layer"/>
  <g id="_440628360">
   <polygon id="_440634552" class="fil0" points="0.256576,0.703502 0.231744,0.707638 0.211046,0.720054 0.0537998,0.881444 0.0372493,0.902132 0.0331026,0.92282 0.0372493,0.947653 0.0537998,0.968348 0.0744876,0.9849 0.0993205,0.989036 0.124153,0.9849 0.14484,0.968348 0.306231,0.811092 0.318648,0.790406 0.322783,0.765573 0.318648,0.74074 0.306231,0.720054 0.281398,0.707638 0.256576,0.703502 "/>
   <polygon id="_440634120" class="fil0" points="0.417959,0.856613 0.393135,0.860749 0.372438,0.873164 0.215191,1.03456 0.198641,1.05524 0.194494,1.08008 0.198641,1.10491 0.215191,1.12559 0.235879,1.13801 0.260712,1.14629 0.285534,1.13801 0.306231,1.12559 0.463478,0.968348 0.480039,0.947653 0.484175,0.92282 0.480039,0.897996 0.463478,0.873164 0.44279,0.860749 0.417959,0.856613 "/>
   <polygon id="_440634240" class="fil0" points="0.57935,1.01387 0.554527,1.018 0.53383,1.03042 0.372438,1.19181 0.355886,1.2125 0.351752,1.23733 0.355886,1.26215 0.372438,1.28285 0.393135,1.2994 0.417959,1.30767 0.44279,1.2994 0.463478,1.28285 0.624869,1.12146 0.637286,1.10076 0.641422,1.07594 0.637286,1.05111 0.624869,1.03042 0.600046,1.018 0.57935,1.01387 "/>
   <polygon id="_440634504" class="fil0" points="0.728326,1.17112 0.707638,1.17525 0.682805,1.19181 0.525558,1.35319 0.509008,1.37389 0.504861,1.39871 0.509008,1.42355 0.525558,1.44424 0.546246,1.45665 0.575215,1.46493 0.600046,1.45665 0.616598,1.44424 0.77799,1.28285 0.790397,1.26215 0.794542,1.23733 0.790397,1.2125 0.77799,1.19181 0.753157,1.17525 0.728326,1.17112 "/>
   <polygon id="_440634456" class="fil0" points="0.848332,1.32837 0.83178,1.34492 0.761428,1.42355 0.840061,1.50217 0.860749,1.51459 0.885582,1.52287 0.906268,1.51459 0.931101,1.50217 0.943517,1.48148 0.947653,1.45665 0.943517,1.43596 0.931101,1.41113 0.848332,1.32837 "/>
   <polygon id="_440634480" class="fil0" points="0.513142,0.086904 0.488311,0.086904 0.463478,0.0951848 0.438654,0.1076 0.417959,0.124152 0.0413834,0.525558 0.0206972,0.546246 0.00828077,0.571077 -0,0.595901 -0,0.620734 -0,0.645565 0.00828077,0.670388 0.0206972,0.691086 0.0413834,0.711773 0.0662163,0.744876 0.140704,0.670388 0.169672,0.649701 0.198641,0.63315 0.231744,0.624869 0.260712,0.620734 0.289679,0.624869 0.314503,0.629015 0.339335,0.641431 0.360022,0.657981 0.384854,0.682805 0.401407,0.711773 0.409687,0.744876 0.413823,0.773845 0.44279,0.77799 0.471759,0.786261 0.500727,0.802812 0.525558,0.823509 0.546246,0.848332 0.558663,0.873164 0.571079,0.906268 0.571079,0.935236 0.604182,0.939381 0.63315,0.947653 0.657983,0.960068 0.682805,0.980755 0.703502,1.00559 0.720054,1.03456 0.728326,1.06352 0.728326,1.09663 0.761428,1.09663 0.790397,1.10491 0.819364,1.12146 0.844197,1.14215 0.864884,1.16698 0.877301,1.19181 0.885582,1.22078 0.889717,1.2456 1.00559,1.36147 1.02628,1.37803 1.04697,1.38216 1.0718,1.37803 1.09249,1.36147 1.10904,1.34079 1.11732,1.31596 1.10904,1.29112 1.09249,1.2663 0.9849,1.1587 0.972486,1.14215 0.972486,1.12559 0.972486,1.10904 0.9849,1.09663 0.993172,1.08421 1.00145,1.07594 1.02214,1.06766 1.03456,1.0718 1.04697,1.08008 1.1587,1.19181 1.18353,1.20836 1.20836,1.2125 1.23319,1.20836 1.25388,1.19181 1.26629,1.17112 1.27044,1.14629 1.26629,1.12146 1.25388,1.10076 1.13801,0.989036 1.13388,0.972484 1.12973,0.955934 1.13388,0.939381 1.13801,0.926965 1.15456,0.918684 1.17112,0.914549 1.18767,0.918684 1.20008,0.926965 1.31596,1.03869 1.33664,1.05111 1.36148,1.05524 1.38631,1.05111 1.40699,1.03869 1.42355,1.018 1.42768,0.993172 1.42355,0.968348 1.40699,0.947653 1.33251,0.869029 1.31596,0.852477 0.889717,0.426238 0.877301,0.417967 0.860749,0.417967 0.840061,0.417967 0.827644,0.426238 0.657983,0.595901 0.63315,0.620734 0.600046,0.63315 0.571079,0.645565 0.537965,0.645565 0.492446,0.641431 0.455206,0.620734 0.426239,0.600046 0.405552,0.571077 0.393135,0.54211 0.38899,0.509006 0.38899,0.475894 0.397271,0.44279 0.413823,0.413821 0.434509,0.384854 0.637286,0.15312 0.608317,0.124152 0.587631,0.1076 0.562798,0.0951848 0.537965,0.086904 0.513142,0.086904 "/>
   <polygon id="_440634624" class="fil0" points="0.943517,0 0.918684,0 0.893851,0.00828077 0.869029,0.0206972 0.848332,0.0372477 0.769709,0.111735 0.757293,0.128287 0.492446,0.422102 0.475894,0.44279 0.467623,0.467623 0.475894,0.492456 0.492446,0.513142 0.513142,0.529694 0.537965,0.53383 0.558663,0.529694 0.57935,0.513142 0.757293,0.339334 0.77799,0.322783 0.798678,0.310367 0.82351,0.302096 0.852477,0.302096 0.877301,0.302096 0.902132,0.310367 0.926965,0.322783 0.947653,0.339334 1.38631,0.782125 1.48148,0.695221 1.49803,0.674534 1.51045,0.649701 1.51872,0.624869 1.51872,0.600046 1.51872,0.571077 1.51045,0.546246 1.49803,0.525558 1.48148,0.500726 1.03869,0.0372477 1.018,0.0206972 0.993172,0.00828077 0.968339,0 0.943517,0 "/>
  </g>
 </g>
</svg>
