<?xml version="1.0" encoding="UTF-8"?>
<!DOCTYPE svg PUBLIC "-//W3C//DTD SVG 1.1//EN" "http://www.w3.org/Graphics/SVG/1.1/DTD/svg11.dtd">
<!-- Creator: CorelDRAW -->
<svg xmlns="http://www.w3.org/2000/svg" xml:space="preserve" width="83.4214mm" height="104.121mm" style="shape-rendering:geometricPrecision; text-rendering:geometricPrecision; image-rendering:optimizeQuality; fill-rule:evenodd; clip-rule:evenodd"
viewBox="0 0 1.06722 1.33203"
 xmlns:xlink="http://www.w3.org/1999/xlink">
 <defs>
  <style type="text/css">
   <![CDATA[
    .fil0 {fill:#82C650}
   ]]>
  </style>
 </defs>
 <g id="Layer_x0020_1">
  <metadata id="CorelCorpID_0Corel-Layer"/>
  <path class="fil0" d="M0.589783 1.09932l-0.0160465 0.00802772 -0.00401962 0.00400938 -0.00400938 0.0120384 0 0.0922759 0.00400938 0.00802772 0.00401962 0.008029 0.0160465 0.00400938 0.100304 0 0.0160478 -0.00400938 0.00400938 -0.008029 0.00400938 -0.00802772 0 -0.0922759 -0.00400938 -0.0120384 -0.00400938 -0.00400938 -0.0160478 -0.00802772 -0.100304 0zm-0.224683 0l-0.0200571 0.00802772 -0.00400938 0.00400938 -0.00401834 0.0120384 0 0.0922759 0.00401834 0.00802772 0.00400938 0.008029 0.0200571 0.00400938 0.0962943 0 0.0160478 -0.00400938 0.00802772 -0.0160567 0 -0.0922759 -0.00802772 -0.0160478 -0.0160478 -0.00802772 -0.0962943 0zm-0.228692 0l-0.0160478 0.00802772 -0.00801876 0.00400938 0 0.0120384 0 0.0922759 0 0.00802772 0.00801876 0.008029 0.0160478 0.00400938 0.0962943 0 0.0200559 -0.00400938 0.00401962 -0.008029 0 -0.00802772 0 -0.0922759 0 -0.0120384 -0.00401962 -0.00400938 -0.0200559 -0.00802772 -0.0962943 0zm0.682068 -0.204617l-0.0160478 0.00802772 -0.008029 0.00802004 0 0.00802772 0 0.296893 0 0.00802772 0.008029 0.008029 0.0160478 0.00400938 0.096284 0 0.0200661 -0.00400938 0.00400938 -0.008029 0 -0.00802772 0 -0.296893 0 -0.00802772 -0.00400938 -0.00802004 -0.0200661 -0.00802772 -0.096284 0zm-0.228693 0l-0.0160465 0.00802772 -0.00401962 0.00802004 -0.00400938 0.00802772 0 0.0922759 0.00400938 0.00802772 0.00401962 0.00801876 0.0160465 0.00401962 0.100304 0 0.0160478 -0.00401962 0.00400938 -0.00801876 0.00400938 -0.00802772 0 -0.0922759 -0.00400938 -0.00802772 -0.00400938 -0.00802004 -0.0160478 -0.00802772 -0.100304 0zm-0.224683 0l-0.0200571 0.00802772 -0.00400938 0.00802004 -0.00401834 0.00802772 0 0.0922759 0.00401834 0.00802772 0.00400938 0.00801876 0.0200571 0.00401962 0.0962943 0 0.0160478 -0.00401962 0.00802772 -0.0160465 0 -0.0922759 -0.00802772 -0.0160478 -0.0160478 -0.00802772 -0.0962943 0zm-0.228692 0l-0.0160478 0.00802772 -0.00801876 0.00802004 0 0.00802772 0 0.0922759 0 0.00802772 0.00801876 0.00801876 0.0160478 0.00401962 0.0962943 0 0.0200559 -0.00401962 0.00401962 -0.00801876 0 -0.00802772 0 -0.0922759 0 -0.00802772 -0.00401962 -0.00802004 -0.0200559 -0.00802772 -0.0962943 0zm0.682068 -0.204617l-0.0160478 0.00802772 -0.008029 0.00802004 0 0.00802772 0 0.0922759 0 0.00802772 0.008029 0.00801876 0.0160478 0.008029 0.096284 0 0.0200661 -0.008029 0.00400938 -0.00801876 0 -0.00802772 0 -0.0922759 0 -0.00802772 -0.00400938 -0.00802004 -0.0200661 -0.00802772 -0.096284 0zm-0.228693 0l-0.0160465 0.00802772 -0.00401962 0.00802004 -0.00400938 0.00802772 0 0.0922759 0.00400938 0.00802772 0.00401962 0.00801876 0.0160465 0.008029 0.100304 0 0.0160478 -0.008029 0.00400938 -0.00801876 0.00400938 -0.00802772 0 -0.0922759 -0.00400938 -0.00802772 -0.00400938 -0.00802004 -0.0160478 -0.00802772 -0.100304 0zm-0.224683 0l-0.0200571 0.00802772 -0.00400938 0.00802004 -0.00401834 0.00802772 0 0.0922759 0.00401834 0.00802772 0.00400938 0.00801876 0.0200571 0.008029 0.0962943 0 0.0160478 -0.008029 0.00802772 -0.0160465 0 -0.0922759 -0.00802772 -0.0160478 -0.0160478 -0.00802772 -0.0962943 0zm-0.228692 0l-0.0160478 0.00802772 -0.00801876 0.00802004 0 0.00802772 0 0.0922759 0 0.00802772 0.00801876 0.00801876 0.0160478 0.008029 0.0962943 0 0.0200559 -0.008029 0.00401962 -0.00801876 0 -0.00802772 0 -0.0922759 0 -0.00802772 -0.00401962 -0.00802004 -0.0200559 -0.00802772 -0.0962943 0zm0.682068 -0.204617l-0.0160478 0.00801876 -0.008029 0.008029 0 0.00801876 0 0.0922849 0 0.00801876 0.008029 0.00802772 0.0160478 0.008029 0.096284 0 0.0200661 -0.008029 0.00400938 -0.00802772 0 -0.00801876 0 -0.0922849 0 -0.00801876 -0.00400938 -0.008029 -0.0200661 -0.00801876 -0.096284 0zm-0.228693 0l-0.0160465 0.00801876 -0.00401962 0.008029 -0.00400938 0.00801876 0 0.0922849 0.00400938 0.00801876 0.00401962 0.00802772 0.0160465 0.008029 0.100304 0 0.0160478 -0.008029 0.00400938 -0.00802772 0.00400938 -0.00801876 0 -0.0922849 -0.00400938 -0.00801876 -0.00400938 -0.008029 -0.0160478 -0.00801876 -0.100304 0zm-0.224683 0l-0.0200571 0.00801876 -0.00400938 0.008029 -0.00401834 0.00801876 0 0.0922849 0.00401834 0.00801876 0.00400938 0.00802772 0.0200571 0.008029 0.0962943 0 0.0160478 -0.008029 0.00802772 -0.0160465 0 -0.0922849 -0.00802772 -0.0160478 -0.0160478 -0.00801876 -0.0962943 0zm-0.228692 0l-0.0160478 0.00801876 -0.00801876 0.008029 0 0.00801876 0 0.0922849 0 0.00801876 0.00801876 0.00802772 0.0160478 0.008029 0.0962943 0 0.0200559 -0.008029 0.00401962 -0.00802772 0 -0.00801876 0 -0.0922849 0 -0.00801876 -0.00401962 -0.008029 -0.0200559 -0.00801876 -0.0962943 0zm0.0120371 -0.421272l-0.0200559 0.00801876 -0.0200674 0.008029 -0.0120281 0.0200571 -0.00401834 0.0200571 0 0.216664 0.00401834 0.0200559 0.0120281 0.0200571 0.0200674 0.0120384 0.0200559 0.00400938 0.766315 0 0.0200661 -0.00400938 0.0200571 -0.0120384 0.0120384 -0.0200571 0.00400938 -0.0200559 0 -0.216664 -0.00400938 -0.0200571 -0.0120384 -0.0200571 -0.0200571 -0.008029 -0.0200661 -0.00801876 -0.766315 0zm-0.0361036 -0.0641987l0.838533 0 0.0240755 0 0.0200571 0.00802772 0.0361049 0.0240665 0.0240755 0.0321045 0.008029 0.0200571 0.00400938 0.0240755 0 1.11136 -0.00400938 0.0240665 -0.008029 0.0200661 -0.0240755 0.0361049 -0.0361049 0.0200661 -0.0200571 0.00801876 -0.0240755 0.00401962 -0.838533 0 -0.0200661 -0.00401962 -0.0240665 -0.00801876 -0.0361139 -0.0200661 -0.0240768 -0.0361049 -0.00801876 -0.0200661 0 -0.0240665 0 -1.11136 0 -0.0240755 0.00801876 -0.0200571 0.0240768 -0.0321045 0.0361139 -0.0240665 0.0240665 -0.00802772 0.0200661 0 0 0z"/>
 </g>
</svg>
