<?xml version="1.0" encoding="UTF-8"?>
<!DOCTYPE svg PUBLIC "-//W3C//DTD SVG 1.1//EN" "http://www.w3.org/Graphics/SVG/1.1/DTD/svg11.dtd">
<!-- Creator: CorelDRAW -->
<svg xmlns="http://www.w3.org/2000/svg" xml:space="preserve" width="98.3412mm" height="97.7307mm" style="shape-rendering:geometricPrecision; text-rendering:geometricPrecision; image-rendering:optimizeQuality; fill-rule:evenodd; clip-rule:evenodd"
viewBox="0 0 1.55111 1.54148"
 xmlns:xlink="http://www.w3.org/1999/xlink">
 <defs>
  <style type="text/css">
   <![CDATA[
    .fil0 {fill:#82C650}
   ]]>
  </style>
 </defs>
 <g id="Layer_x0020_1">
  <metadata id="CorelCorpID_0Corel-Layer"/>
  <g id="_440628552">
   <polygon id="_440636112" class="fil0" points="0.32274,1.04531 0.32274,1.14647 0.428728,1.14647 0.428728,1.04531 "/>
   <polygon id="_440636328" class="fil0" points="0.525063,1.04531 0.525063,1.14647 0.626224,1.14647 0.626224,1.04531 "/>
   <polygon id="_440635968" class="fil0" points="0.727385,1.04531 0.727385,1.14647 0.828547,1.14647 0.828547,1.04531 "/>
   <polygon id="_440635992" class="fil0" points="0.929697,1.04531 0.929697,1.14647 1.03086,1.14647 1.03086,1.04531 "/>
   <path id="_440636016" class="fil0" d="M1.28135 0.94415l0.0192679 0 0.0144525 0.0144541 0.00962766 0.0144525 0.00482645 0.0240818 0 0.197509 -0.00482645 0.0192664 -0.00962766 0.0192679 -0.0192664 0.0096387 -0.0144541 0.00481383 -1.00678 0 -0.0240928 -0.00481383 -0.0144525 -0.0096387 -0.00962766 -0.0192679 -0.00481383 -0.0192664 0 -0.197509 0.00481383 -0.0240818 0.00962766 -0.0144525 0.0144525 -0.0144541 0.0240928 0 1.00678 0zm-0.929708 -0.404633l-0.0289067 0.00481383 -0.298658 0.202323 -0.0192679 0.0192664 -0.00481383 0.0240928 0 0.703293 0 0.0192679 0.0144541 0.0144525 0.0144415 0.00964028 0.019279 0.00481383 1.44032 0 0.0240818 -0.00481383 0.0144525 -0.00964028 0.00964028 -0.0144525 0.00481383 -0.0192679 0 -0.703293 -0.00481383 -0.019279 -0.00964028 -0.0144415 -0.0144525 -0.0144525 -0.0192679 0 -0.790013 0 0 -0.15415 -0.00481383 -0.0192664 -0.00962766 -0.0192679 -0.0144525 -0.0096387 -0.0192679 0 -0.0289067 0.00481383 -0.226403 0.149334 0 -0.105975 -0.00481383 -0.0192664 -0.00964028 -0.0192679 -0.0144525 -0.0096387 -0.0192679 0 0 0z"/>
   <polygon id="_440635680" class="fil0" points="1.13202,1.04531 1.13202,1.14647 1.22837,1.14647 1.22837,1.04531 "/>
   <polygon id="_440635848" class="fil0" points="1.02123,0 0.987511,0 0.948976,0.0144541 0.915256,0.0337205 0.886349,0.0626161 0.876709,0.0818951 0.871895,0.101161 0.881535,0.120429 0.891163,0.139696 0.910429,0.149323 0.924883,0.149323 0.94415,0.149323 0.958604,0.134882 0.992324,0.110789 1.02123,0.101161 1.05495,0.110789 1.08867,0.134882 1.11757,0.163778 1.15129,0.183044 1.18982,0.197498 1.22354,0.202323 1.26209,0.197498 1.29581,0.183044 1.32953,0.163778 1.36325,0.134882 1.37288,0.115616 1.37288,0.0963366 1.36806,0.0770686 1.35842,0.0626161 1.34397,0.0481746 1.3247,0.0481746 1.30062,0.0529884 1.28617,0.0626161 1.25726,0.0915227 1.22354,0.101161 1.19465,0.0915227 1.16093,0.0626161 1.13202,0.0337205 1.0983,0.0144541 1.05977,0 "/>
   <polygon id="_440635872" class="fil0" points="1.29581,0.308298 1.27654,0.308298 1.25726,0.32274 1.24763,0.337194 1.24763,0.351646 1.24763,0.640678 1.55111,0.640678 1.55111,0.351646 1.54148,0.337194 1.53184,0.32274 1.51257,0.308298 1.49331,0.308298 "/>
   <polygon id="_440636640" class="fil0" points="0.886349,0.40946 0.867081,0.40946 0.852629,0.419087 0.842988,0.438355 0.842988,0.452808 0.842988,0.645492 1.14647,0.645492 1.14647,0.452808 1.14166,0.433541 1.12721,0.419087 1.11275,0.40946 1.09349,0.40946 0.895988,0.40946 0.886349,0.40946 "/>
  </g>
 </g>
</svg>
